/* XPM */
static char *_578675786584[] = {
/* columns rows colors chars-per-pixel */
"64 64 185 2 ",
"   c #050504",
".  c #0B0907",
"X  c #0D0D0C",
"o  c #110E0E",
"O  c #0E100E",
"+  c #11110E",
"@  c #141412",
"#  c #1A1615",
"$  c #161A16",
"%  c #1A1A16",
"&  c #171A19",
"*  c #1D1D1B",
"=  c #201E1C",
"-  c #1C201B",
";  c #22221D",
":  c #29251F",
">  c #1C2022",
",  c #232422",
"<  c #292522",
"1  c #252923",
"2  c #2B2A25",
"3  c #2A262A",
"4  c #252B29",
"5  c #2C2C2A",
"6  c #332D26",
"7  c #312D2B",
"8  c #3A2F2C",
"9  c #23372B",
"0  c #2E322D",
"q  c #323025",
"w  c #33322D",
"e  c #3B362E",
"r  c #35392F",
"t  c #3C3B2E",
"y  c #332E31",
"u  c #2E3232",
"i  c #343332",
"p  c #3A3532",
"a  c #343A33",
"s  c #3C3C34",
"d  c #37373A",
"f  c #3C353A",
"g  c #353A39",
"h  c #3C3C3A",
"j  c #423E34",
"k  c #423E3C",
"l  c #483F3A",
"z  c #3D4235",
"x  c #35413E",
"c  c #3D423B",
"v  c #3D483F",
"b  c #434235",
"n  c #494235",
"m  c #404837",
"M  c #484837",
"N  c #43433C",
"B  c #49443D",
"V  c #45493D",
"C  c #4B4B3D",
"Z  c #514D3E",
"A  c #47513C",
"S  c #4D503E",
"D  c #51513E",
"F  c #58563F",
"G  c #3C3C42",
"H  c #433E42",
"J  c #354341",
"K  c #3E4542",
"L  c #3E4A44",
"P  c #3F414A",
"I  c #434442",
"U  c #4A4542",
"Y  c #444A43",
"T  c #4C4B43",
"R  c #41414A",
"E  c #4C4649",
"W  c #454A49",
"Q  c #4C4C4A",
"!  c #514644",
"~  c #524D44",
"^  c #594E46",
"/  c #534D4B",
"(  c #594E4C",
")  c #475141",
"_  c #4D5144",
"`  c #4D5845",
"'  c #46534A",
"]  c #4D514C",
"[  c #535245",
"{  c #5A5444",
"}  c #505945",
"|  c #5F5C43",
" . c #54524C",
".. c #5A544C",
"X. c #555A4C",
"o. c #5C5B4D",
"O. c #4D4C52",
"+. c #544E51",
"@. c #594E50",
"#. c #4D5352",
"$. c #4D5953",
"%. c #545452",
"&. c #5A5552",
"*. c #545B52",
"=. c #5C5B53",
"-. c #54555A",
";. c #5C5659",
":. c #555B5A",
">. c #5C5C5A",
",. c #625944",
"<. c #61574E",
"1. c #625B4E",
"2. c #615653",
"3. c #635C54",
"4. c #6B5C54",
"5. c #625759",
"6. c #645D5A",
"7. c #695D5A",
"8. c #5E604D",
"9. c #556252",
"0. c #5D6254",
"q. c #5F6957",
"w. c #576159",
"e. c #5C615A",
"r. c #5F6A5D",
"t. c #62614D",
"y. c #6A644E",
"u. c #646255",
"i. c #6B6355",
"p. c #676C57",
"a. c #6C6955",
"s. c #64635B",
"d. c #6B645C",
"f. c #646A5D",
"g. c #6C695C",
"h. c #716955",
"j. c #72655D",
"k. c #726B5D",
"l. c #7A6D5C",
"z. c #76705E",
"x. c #7B735E",
"c. c #5F5F65",
"v. c #625D61",
"b. c #6A5F61",
"n. c #5D6361",
"m. c #636362",
"M. c #6B6562",
"N. c #656A64",
"B. c #6C6A63",
"V. c #646469",
"C. c #6E666A",
"Z. c #676E69",
"A. c #6C6D6A",
"S. c #716663",
"D. c #736B62",
"F. c #7A6C64",
"G. c #726C69",
"H. c #796D69",
"J. c #6D7163",
"K. c #757363",
"L. c #7A7465",
"P. c #7A7A65",
"I. c #75736A",
"U. c #7B746B",
"Y. c #7C7A6A",
"T. c #7B7670",
"R. c #7D7D72",
"E. c #837365",
"W. c #897C66",
"Q. c #83766B",
"!. c #827B6C",
"~. c #847671",
"^. c #857C73",
"/. c #8B7D72",
"(. c #807B79",
"). c #887D78",
"_. c #7F8273",
"`. c #8D826D",
"'. c #848474",
"]. c #8A8575",
"[. c #838876",
"{. c #888A74",
"}. c #918774",
"|. c #938B7E",
" X c #A39A84",
/* pixels */
"6.g Y & 4 c &.Q Y.s 6.b |.p C.o.u.] d.= [  . .;.7.( a p h ~ / h N p c l k 7 , B p w * X   >. .;.&.;.c u.5 ..a f.[ d.1 , , Q h *.",
"5 U I Q h >.i c G...6.M.#.K.d...n.^ s.- Y e._.>.U U / =.M.p.=.5.A.%.6.*.6.u.; o.*.>.c.>., j.7.X.6.>.L.B.j./ ] T 5 H B./ >.f.1 z ",
"] N k a N *.g i ^.&.N.i.>.Q f.3.] >.g.w 6.g.6.L =. .C B =.6.&.!.=.d...%.B V 1 T E :._  .1 ~ 6.=... .C u.Q &.Q / g W Y.g.Q I.d / ",
"D.V +.5 5 W o.&.H.o.e.1. .2.=.[ 6.b Q 1 6.i..._.^.[ 6. .T =._ +.D.k  .*.~ I - ..>.~ 6.3.O W %./ #.#.#.&.#.-.[ I.I &.i.o.~ d.U G.",
":.m.&.~ j e.*.G.w T H.=.2.~ S.M...k.o.2 N.( j ..T h i.6.I -.;.=.A.l k.3.3.U z 6.4. .&.j.6 N.<.T &.s.[ 6.%.D.e 2 T  .k. .3.D.d...",
"u., D.k.D.D.c *.k h G.s m U >.C.Y./ g.k / 6.d.s B  ._ d.U j.&.5.%.B >.&.6.N 2 / [ U B 5.5 L.T 3.u.e.U %.e.D.a b %.i F.L.e.B.i 6.",
", 0 ] B.-.Q z N Y s ] ` h 5.Q 4.{ C.o.< c u p Y T / [ C -.4. .u.( / o.h h < U B ( T K ( 1 6.7.=.s.*._ ] Y.d.c } i f h.A.Q E p i ",
"Y > / F.o.a.k Y a / o.U m.Y / $.Y.=.N., 6.=.( I d.T ( M._ =.s.o.E U 2 1 W a d.U Q U ] E 1 n.3.6.2.$./ m.2.!.0.6  .s ^.7.e.j.1 T ",
"T [ E U 6.&.T I I V *.f.U B.D.2.[ d.b.; T ( F.B U j T s.( U =./ 1 w d s / i ( k E ] &.^ 5 [ ;.C +.( q.z N.D.h b { ..3...U 6._ =.",
"..~ B i p  .V ] p.j g. .~.&.a.B.u.T 2.= 5 U Y T ! I ..s Q e 1 i H p N Q c , N / / U  ...< k Q J.M.3.c y./ U.3.C.] i 3.H T ;.5 <.",
"1 I N 2.X.s i [ &.] %.|.=.N.] *.[ Q X.q h i ] p [ i.i b 5 T Q ..( g N k w 5 X.] Z [ >.6.w h.=.V *.o.*...F.s.k.a.s 6 Y &.j b 2 b ",
"e.C...u.<.X.( ' M.E =.X.g. .1. .%.t b * ~ 7 u w s B w B =.D.T ~ g.b Q z 2 w 2.[ 5 2.a.k.w ^.J.l.2.N.I  X=.1.z.t.=.Y.F.[ N.N ..Y.",
"[ I.s.+.K.~ u.q.>.0.T s.c U 7.] j 6.! s / V < 1 i V U g.Y.D.Y.Y h o.j Q 2 f 6./ 0 =.g._ 1 g.c I o.V C. .k.V 4.Q I I c %.T s.Q T ",
"U. .] Y.1.^.[ T.g.T b _ d.> R H.6.3.>.q V k 6 6 ! g.&.T p.u.B f b ( U C * s I T s 1.N.3.< N c ..B u.T ).I ,.U 6.D.2 u.I ~ } ~ M.",
"T W. .*.6.^ !.T ..%.p d.~ T =.&.B B B 7 B N d s M.d.d.[ *.%.N ) N U ~ 7 = / U T U ..i 5 ; %.E ` 3.s.U.Q l.E d.[ V T 5 } ..E U 2 ",
"*.y.o.S.p.Q.p.f.X.*.k b.g.~ ;.s.=.U / 2 T / s U H.m.u.%. .( T c c s g f e N z 0 e i T V 6 ..Q E E >.s.-.u.*.G.U Q Y [ g.:.:./ =.",
"6.u... ...>.*.1.I %.B ..d.G g.C o...d.5 3.-.T s &.4.q.' U ..U E I ~ s = 2 p , w Q ..d.6.w g.^ 5 / =.w.%.W *.Q W 5 T A.A.L.f.H.o.",
"G.X. .Q  .6./ k.3.k 6 6.&.6.@.>.C / *.: h X.%., >.p s...u.7.E B V N B 1 1 1 i l.Y.a.Y 3.; >.Q b W ..*.z S C } h c p k.D._ i.N K.",
"5.j.k [ [ U 5 ^ ~ V w I =.C / U k s z = N T T 1 ! { Q !.g...o.Q / / T 1  .B k.[ 6.h.j.s % k Y I t C B W 5 a c &.5 i &.*.Y T W w.",
"; i % & @ @ # o o # o   X o @ @ X   X + X % + o @ % X X ..~ U 5 i 5 i < u w * * t 0 h 5 * * = @ @ * + X X * + X   X X     . X # ",
"j j 2 / 1 % * # , # k = h 1 p 2 1 < T ] y < = * = # % ; * * % > % * % @ + # + @ @ * = i 5 0 6 < ; ; ; ; % % * ; - ; $ + X @ $ N ",
"7.[ T U w e < O w Z 2.N F.4.%.o.( a.6.1.E Q ( [ s d 3.N @.E [ *.h k < 2 t N B % U b n.~.d.C.5.>.Q F.T D.6.g.;.l.%.s 4 i v V  .%.",
"T j 6 B ..a * # ] h ~ 1.Q h.D [ j.Y U &.Y N E &...1 ^ ^ +.X.B b X.T 1 p e.^ H % B I -.D.6.;.[ Q *.%.U T B l s 6 s i *.=.^ o.I I ",
"b T / k.[ =.1 7 o.2.I.G.l...>.T I ( | o.=.N 1.L.F.j b o.u.2.:.S.p.g.i U.b.f.K.# j m.v.Y.Y.2.s ( ..V 1 j 3 Z s 4.Y 6 r p w 7 w 3 ",
"m.!.k.T / h # * g.+.6.m.d.[ 6.3.T c o.c ~ N d./ o.6 6 Y / N.&.s.:.V p &.I.4.=.# 7 Q 7...w 2 3 U w ] Q Y b F i.u.4.I x.B 6.Q ( 4.",
"3.) T 2.} ~ @ * C L B.L.d.( ;.%.[ I N ..=.S.d.c.k ..y  .<.g.e.s.Q 3 C ..7.=.I O < I k s e } =.d.g %.[ Y q.u.*.%.v [ =.[ s N =.+.",
"%.T *.*.1.N + % N z Q >.6.Q h e.g. .m U.s.g.g.>.h E B U *.C ~ N w 1 k a 7 5 = * V V I h 8.1.` s 5 s C ( l.g.i.2.5 Q <.&.W N ..( ",
"B.i...D._ Y : ; o.C j C  .T B s T %.~  .Q [ o.T a / [ 2 N k s 5 h < 1 2 j Q 1 p N Y w.b =.%.=.I c C X.C.D.U.6.e.M #.l.L.n.I ..M.",
"e.{ o.8.d. .1 = Q ] i.C +.p h K -.N _ >.d.=.M.( B w 6 3 p p w ..j 1 s T %...1 7 6. .>...3.g.o.~ I Q.6.k.`.].Y.q.>.=.d.d.o.!.P.*.",
"%.g...M.B.} 7 = / X.u.>.d.~ w.%.=. .d.6.M.*.s j k ..g.Q 7 s I U e j s G h .., # o.&.*./ .. .6.Q , T M.*.B.).Y.1.K.d.^ i.s d.'.K.",
"o.s.V.4.A.=.6 % ] a.%.] s c Q P h &.>.f 6 [ %.V.[ G.g.g.h z N w w I ..C s &. ., Y c.K =.=.;.B...y I =.Y.u.M.2.[ ..F...! ~ Y.s.s.",
"K.<.6.H.3.e.s @ 3._ Y ] z C o.d./ b w 6 ~ %.7.f.k.B.Q.7.U 1 / z 1 V 5 ( g.&.h w T %.6.3.1.%.&.C f 5 l g.=...V C 6.} =.b / ( =.c.",
"g.L.&.=.s.3.~ 2 ..K.6.U X.o.u.H.B , p U =.d.j.F.g.Y.u...I 2 K < U H.].'.^.U.i < ( r.g...L.L.) T %.3 =.} d.%...! B.~ | N 3.=.4.C.",
"L.k.D.C.] e : 3 b 3.Q B I w.[ > / I f.g.2.[ a.E.}.I.u.e.#.k 1 < %.=.d... .U k 3 i.d.b.d.g.=...Y.K.1 E g.[ / Y Z o...k.B.i.L.F.:.",
"X.=.+.[ N 5 1 1 2 %.[ d v a 5 Y [ U u Q &.Q &.6.] 3.e.C B ] 1 2 ..>.:.6.( 3.2 6 D.&.a.y.h 2. .9.s.7 t.T  .i.o.w o.3.6.k.=.{ i.Y.",
"X.D.&. .r 0 p , : U b w < c =.s.C i.~ C / i 3.&. .*. .&.} 3.N z T X.=.^ <./ I , ] %.e.B Q / ;.%.Q 1 s Q Q s w s c 9 ....j.=._  .",
"%.i / E N b s > ; 1 r < o.c T X.w d.>.L Q ~ g...x z.#.[ ..T 0 n W -.i. .1.=.* , >.N o.W Q :.Y d.C g 0 z N T p Q W ..u.=.L.Y V z ",
"} V j d I T k 1 < s h t +.T T H.] l.[ } &./ b D.].*.6.X.{ T 1 ..&...%.$.N Q * , U Y =.E %._ ..D.I N , b t c I ..C / U Y I T V I ",
"_ o.N u / I N 5 g 7 : c V U Q u.^ 5.~ Q C.3.^ t [ V %.T { f < _ &.Q n.V 3.T * 0 N &. .T Q U Q U N W > b n c q b c g E ] l.h E U ",
"=.] N T 3.6.I 5 T w s M G &.Q H Q Q :.:.#.*. .Q s Q / 2.[ i ~ g.Z. .6.I.;.&.% ^ U B Q Q 8.t.I C W Q Z w B I I f e K./ o.] _ M.1.",
">.#.y o.%.~ B p I h I h ~ N ( W ..h 8.=.d.-.(.O...e T X.T 0 g ' u.+.%.*.<.Y @ [ [ b a Q ~ W ..=.Q H T 1 U >. .&.d.r Y.!.f.6.V.E.",
"{.*.Q d.&.B , * 4 5 p / [ N K B  .s [ G.M.u.>.&.M.7.6 Q a 5 1 e Y s.i.;.j.p * T I Y h _ C Q #.[ W $.^ i h 4.w.2.*.S.b ( I T u.&.",
"Q.j.u.#.%.U * w ~ 6  .p 1.E W V ,.b Q G %.;.N.M.d.u.I s 1 j h q 5 Q j E Z l @ p _ h %.a T X...U *.[ s ^ 5 T M ,.H.1.=.1.N I g.m.",
"B.I h K h 6 + - & 1 w t < w 0 w 5 5 4 5 p Q p d i p 2 & * w p 0 5 = 5 i 0 2 O > s p V M T _  .I *.U a j , z 3.$.C ^ I U I k V d.",
"X X X X @ @   @ o o + X @ O @ X O O . X > 1 < < # % y @ ; ; < 2 = % * , 1 = > ; * * : ;   o X X X X X X O X o X X X o X   . X * ",
"T.B.4.'. .D.6.....;.1.T W 6.6.c N 6.b @ 5 Q s U ^ 6 5 5 s &.*.V B / w Q / ~ U *.X.../ p + i.L.4.3.3.Y.m.4.g.s.!.W.D.o.o.i.*.K.g.",
"T ..w.! s x k U W ` c D a Y p I ] h &.w z 0 T [ w B w i I 5 d U ..V 0 r c d N @.~ ] X.*.  Q U N T : -. .o.7 *.o.` C N %.%.~ } ..",
"6.Z.&.&.}  ./ V I Q U 3 K / %. .5 T *.& E T h Q B B a E U V 4. ./ =. .1 Q d. .j 4.] _ [ # K 5 [ >.3.I [ } Q ..0.U.4.6.>.X. .m.5.",
":. .&.U ) E $.6.j...h / =.A X.[ B w / 7 Q ~ X.a I i b W ! *.~ k f.=.Q < p ..] T s b &.B.# ( T 7./ g./ ;.T >.=.d.B.=.k.o.T 6.6.M.",
"w / H V _ h ] s ] ..u.K.B.E.u.o.h V T a B ^ T j b 1 1.h a >.d./ &.I ..e 5 W L X.f  .[ T @ +.d...K.i./ Q :.} s.C.~ s.%.L.Q *.s.2 ",
"%.s T I N =.6 f.V p 2...u.U L.Q i.n k w I T V a 4 q 2 w b =.~ ~ X.b >.T ; p < T V d : , + s.=.f.i.B.C =.N $.U &.=.T [...3.g.] *.",
"a ^ v k z 0 3.s K.M.S.N.p.^.Q D.o.Q a 2 V E j N > r < B ../ k Q Q I b T w , I Y 5 2 p 6.# 6.X...6.e.K.^ 8.U $.[ ] `.U / o.u./ w ",
"%.#.[ / / 1.p...*.T D./ A.U >.[ V.d.6.4 C L ~ i 4 q h &.I s &.Q Q E h T e * 5 ; w z r T = N ~ ..%.Q B n.Q 6.o.N.g.'.D.&.[ 1.,.=.",
"1 < Y B C v 4 j ( ~ l.U.j.Q.C.6.Y p 6.= 1 B T 3 p c b ] B p } T V B N V U , w h z Y i s = d. .C =.Q :.I ~  ._ %.h a d.C [ W k 6 ",
"[ T D a p N U ] g.2.v./  X7.Y.F.g.Z h 1 i , s , W s  .%./ &.! C T L %.H  .N a &./ / Y Y < u.Q =.a.>.H U.^ ^._.B.b.3.u.B N k.j 4.",
"/ ~ 0.C Q 3.0.d.7 B N.!.s g.:.T...s.B w 3.C 5 - s U @.^ ~ { ..Y <.h %.T s f y k Y Y S ..% ` %...X.{ j.V !.u.N u S ..3.i.=.f.6.=.",
"U 5 =.$. .4.p 2.B u./.U ] 5 I i.6./ #.5 ( v * 5 k } Z h ;.I ....=.H ( I Y w b =.I h  ./ % U a 2. .Q I $.I >.b a N d $.g.u.N.1 Y ",
"5 g } } / Y 4 c ..~ F.6.V N E W B X.T 5 Q p w s Y g h v ^ u.j s.) Q 6.5 h 5 w h >.i ~ ] & N } b Q E N U ] _ I ) N 5  .K.*.o. .i ",
"*.i K.3.T =.6 =.g i g.Y %.I N Y h p 5 5 T 2 c k ! 0 ] W B Q Q / k s N ! T i r b I I U / & 6.w R...d.T 6.Y g.5 U W 6 ^.Y.=.Y.5 ~ ",
"W $.d.h a ) T &.0 s =.[ =.O.I ] [ V , 2 C < k z C s V g h U U Q *.T U Q U d * a N z c Q % Y h H p ] U [ w :.a w T Y 2.N Y m.W ( ",
"[ I v w w B ! C s.( <. .c ] } s c y 5 5 U i 7 k N i j i Y e.D.^ d.B Q 1.Y w p V K e k I @ T U I p / J h ~  .K :.Y E :.I ~ / 5 *.",
"i s ~ / z c a t  .Q =.s %.T &.a N ] b 5 N [ =.N Q O.a Y d.[ ;.S.=.[ B h 5 6 g h i ] U [ & [ >.$.../ C =.z *.U C 0 5 4.~ C [ 5 b ",
"h C ( ` [ D.w B I.1./ X.p U s U v B =.* i N.d.-.k / / / %.E &.3.>.h h T Q B a e 5.C C U @ C h ] E &.0.I B r w d 0 h >.] ,.G 5 %.",
"A.! &.8 s b h.W &.U s.b o.U X.~ L =.I * 2 g i j , O > & * 5 7 1 i y i 5 2 1 a 2 % < , 5 * T +./ ~ [ h X.w L s W k } w w 0 Q h 7."
};
