/* XPM */
static char *a5c7fee75a3c42ca90c6d7eb65bf28bd[] = {
/* columns rows colors chars-per-pixel */
"64 64 159 2 ",
"   c #7E6D6D",
".  c #74746D",
"X  c #80776E",
"o  c #7A8674",
"O  c #7E8679",
"+  c #88826D",
"@  c #848473",
"#  c #8A8B76",
"$  c #8C8B7E",
"%  c #8A9277",
"&  c #828681",
"*  c #8C8C82",
"=  c #8D8C89",
"-  c #938E89",
";  c #988F8D",
":  c #869286",
">  c #8E9286",
",  c #8E9389",
"<  c #8F9B8B",
"1  c #939184",
"2  c #9B9584",
"3  c #93958B",
"4  c #9C968A",
"5  c #939A8E",
"6  c #9D9D8F",
"7  c #8A9692",
"8  c #8E9B94",
"9  c #959793",
"0  c #9D9795",
"q  c #959C94",
"w  c #9C9D92",
"e  c #9B9C9A",
"r  c #A19B8E",
"t  c #A29D95",
"y  c #A39C9B",
"u  c #A89E9E",
"i  c #9CA28F",
"p  c #9BA295",
"a  c #9CA896",
"s  c #92A29D",
"d  c #9CA39A",
"f  c #9CAC9C",
"g  c #A4A395",
"h  c #A8A496",
"j  c #A8AA97",
"k  c #A4A49B",
"l  c #A9A59C",
"z  c #A5AA9C",
"x  c #ABAA9C",
"c  c #B1A79E",
"v  c #B1AA9C",
"b  c #B8AC9E",
"n  c #ABB09D",
"m  c #B3B09E",
"M  c #93A1A1",
"N  c #9BA4A3",
"B  c #A4A5A2",
"V  c #AAA5A2",
"C  c #A6AAA4",
"Z  c #ABABA3",
"A  c #A8A5A8",
"S  c #A6AAA9",
"D  c #ABACA9",
"F  c #B0A7A7",
"G  c #B2ACA4",
"H  c #B8AFA7",
"J  c #B2ADAA",
"K  c #B8ADA8",
"L  c #A7B1A7",
"P  c #ADB2A5",
"I  c #ADB8A7",
"U  c #ADB2AA",
"Y  c #ABB9AB",
"T  c #B2B2A5",
"R  c #B9B3A6",
"E  c #B3B9A4",
"W  c #BBBAA4",
"Q  c #B3B3AB",
"!  c #BAB4AB",
"~  c #B4BAAC",
"^  c #BBBBAC",
"/  c #B2AEB1",
"(  c #ADB4B0",
")  c #ABB9B0",
"_  c #B4B4B1",
"`  c #BBB5B2",
"'  c #B5BBB2",
"]  c #BCBCB3",
"[  c #B6BCB9",
"{  c #BDBDBA",
"}  c #C1B6AC",
"|  c #C1BCAE",
" . c #C1B5B2",
".. c #C2BEB4",
"X. c #CABEB3",
"o. c #C2BEB9",
"O. c #C8BEBA",
"+. c #BEC1AC",
"@. c #B6C2B6",
"#. c #BDC1B4",
"$. c #B6C0BE",
"%. c #BDC2BA",
"&. c #C1C1AE",
"*. c #C3C2B4",
"=. c #CBC5B6",
"-. c #C5C8B5",
";. c #CDC8B4",
":. c #C4C3BB",
">. c #CBC5BC",
",. c #C6CABC",
"<. c #CDCCBD",
"1. c #D0C5B5",
"2. c #D1CBB5",
"3. c #D1C6BC",
"4. c #D3CDBE",
"5. c #CED0BE",
"6. c #D3D1BF",
"7. c #BEBEC0",
"8. c #BFC4C1",
"9. c #C5C5C1",
"0. c #CBC6C1",
"q. c #C5C9C2",
"w. c #CDCCC3",
"e. c #CDCEC9",
"r. c #D1C6C1",
"t. c #D3CDC4",
"y. c #D9CEC5",
"u. c #D3CECA",
"i. c #D9CFCA",
"p. c #C7D0C2",
"a. c #CED1C4",
"s. c #CFD5CC",
"d. c #D4D2C5",
"f. c #DAD3C5",
"g. c #D7DAC6",
"h. c #DBD8C7",
"j. c #D5D3CB",
"k. c #DAD5CC",
"l. c #D6D9CE",
"z. c #DBDACD",
"x. c #CED0D0",
"c. c #D7D7D1",
"v. c #DBD6D1",
"b. c #D7D9D1",
"n. c #DCDBD2",
"m. c #DDDCDA",
"M. c #E0D7CF",
"N. c #E1DBCE",
"B. c #E1DCD2",
"V. c #E2DED9",
"C. c #E3E1D5",
"Z. c #EAE3D5",
"A. c #E3E2DB",
"S. c #EBE4DC",
"D. c #ECEADB",
"F. c #F0E9DF",
"G. c #EDEBE2",
"H. c #F1F1E2",
"J. c #F3F0E9",
/* pixels */
"%.Z ] :.Q >.Q n w.! *.d.B.0.4.Q ! d._ ..! w.] o.3.Z ] :.! *.G l Z Z :.l x ` G g 3.l { ..! G Q k Q w * ` w g o.k ..o.4...w.G Q t ",
"] ' p.V.^ w.>.] ,.' ^ t.] h.! y.Z.] #.w.T >.B N.J n.H 4.d.N.q.T ] k.t.z R !  .:.A =.*.l ~ t.B _ K F :.` h w.R y.<.A.Q [ w.*.2.- ",
"%.L A.[ j.[ U t.w.! ! w.t.] o.{ a.>.n.O.d.U d.k.:.! >.{ C.>.f.Q V N.^ >.Z } Z z 4.Q o.Q ^ ] x y ` U T Q v Z ..L A.! D.a.z.>.F Z ",
"A.G.o.w.<.@.:.n.d.] ..:.T <.^ _ z.| :.w.] n.4.z.S.q.9.:.=.Q r.R ..G B.O.N.C f.U ' Z ] G 4.u o.Q { d.] o.T t.F S.T n.! n.u.>.=.w ",
"m.:.>.z.j.n.d.>.n.:.j.o.o._ *.<.m.S.j.! B.a.t.k.Q w.o.f.:.f.:.h ^ k...:.x ~ Z ! 4.F 6.>.:.] Q A ] ,.d.o.:.y.G t.B.,.J.,.t.i.9.# ",
"0.a.a.w.] t.>.:.! >.Q X.P ^ ,.t.l.:.k.P Q w.w.k.N...X.4.^ x t.l *.=.K y.z.0.k k t.g d.D 4.! ! :.H 9.,.l h.*.-.d.U u.B.` %. .` ! ",
"C.Z u.:.] z C ] ^ 1 ..*.] y.Q f.k.>.B :.>._ j.>.9...] l Q i.>.g v ..:.g 3.o.Q ..Z t.R x o.t.E 3.9.Q w.4.*.*.t.] v.Q >.:.] z o.# ",
"! G.l.g.,.q.0._ # U g J k ! z l x g H ..^ _ >.Q ..#.{ *.0.^ >.0.0.*.~ V C &.] R f.U >.^ ^ 1.~ :.J 4.Z Q o.l  .# :.u.w.*.~ T g ; ",
"Q ] #.d.~ j.^ w d.,.4.&.,.w.y.y.0.0.t.>.d.z.f.y.t.e.f.p.z.k.n.h.k.4.] ..r.n.o.! :.>.4.q.w.Z.w.*.>.w.:.*.w.:.f.9.g d.` k.{ c J 6 ",
"' ,.9.w.<.,.s...:.,.>.z.y.:.v.j.0.2.] >.>.9.,.` z.] n.t.n.k.z.:.z.' >.v ,.:.4.{ :.9.*.z.k.t.:...t.:.` ' z.0.G.%.*.J ,.#.' J ~ k ",
"^ Q y.%.:.A.,.:.o.9.y.o.,.2._ *.[ 4.Q 0.] d.o.f.=.f.w.j.B.A.j.w.:.:.d.V >.,.0.] y.r.4.,.d.C.9.0.:.4.Y i.j.:.f.>.l ,.>.{ ] x c 3 ",
"o.k.` ] w.Z z.l :.k.d.n.3._ f.*.' | J :.^ >...{ ^ <.Z.t.Z.z.v.t.B.*.*.o.^ <.>.:.U k.w.%.z.y.:.*.:.[ Q g.y.^ f.k.G w.a.>.^ m ! j ",
"..G.*.r.:.:.F F w.*.h.B.:.n.:.{ o.^ *.^ 0.4.9.<.] j.:.x.z.w.V.d.:.N.] ` z 4.>.^ ] q.z.>.:.9.:.....>.0.3.9.] ,.~ q t.0.>.9.>.k.g ",
"Q >.w.{ f.v.E ^ -.o.Q { 9.>.>.y.9.9.>.~ y.R ` ] z.w.4.t.:.y.4.K >.] =.:.l ,.] g.>.z.q.w.>.k...] ] o.,.k.^ { ] t.x ~ o.y.d C.:.] ",
"0.o.w.! d.%.w.B 0.3.4.:.^ :.w.w.,.<.! :.:.B.%.w.n.o.] =.M.>.%...:.:.f.^ ] ^ :.%.:.:.w.:.k.i.~ t.4.f.-.q.%.] ' =.1 C :.z >.! 0.G ",
"H w.>.,.` h.:.t.o.0.:.>...K 0.:.9.7.-.y.d.Q *.B.v.q.>.:.,.o.] o.9.t.:.{ P F G :.0.>.:.n.q.f..._ :.a.0.*.] #.z.P Z n.w.t.o.N.{ | ",
"j.:.9. .^ ! :.u *.<.:.f.t...^ ] :.=.o.' f.:.:.k.i.n.] ..:.j.t.| ] h.P ] d.t.` *.*.:.>.o.>.k.] =.o.w.U w.G E ! :.+.-.A.C j.q.l.! ",
"] k.w.:.} *.>.3.9.:.:.w.Q :.9.! >...' B.n.o.*.~ a.r.,.u.6.w.t.t.x ..:.:.a -.] Q j.{ w.d.` d.] ] >.:.>.~ *.w.' ] 5 j.C m.] :.] F ",
":.k.i.] :.>.,.B >.,.d.y.t.>.{ <.4.:.` r.w.0.o.o.! 5.t.9.n.<.0._ C.^ <.Q q.] ] 6.] 9.>.,.4.:.Q ' ` ] Q *.~ :.#.P z g o.#.! ^ k @ ",
">.x.,.*.>.r.:.K d.] y...*.>.t.=.r.^ U h.<.*.K z.w.<.>.d.z.O...=.h.d.e 9.o.] o.Q R *.T y.:.j.y.o.d.t.x ^ t.>.d.<.g [ ' ^ #.u Z 0 ",
"..j.n.*.k...k.u >.<.r.f.Q :.0.~ ^ 0.:.<.z.i.w.f.t.:.w.a.d.w.{ ] G >.=.R ' :.^ Q ] <.#.:.t.n.j.>.t.z._ B.' ~ U ,.l Q :.] P H B . ",
"z.u.x q.9.4.Q T Q >.9.=.k.d.F d.O.*.r.{ >.{ ` 9.B.v.w.w.o...#.>.<.o.&.Q ..o.:.] o.V *.#.t.J #.W ` :.] >.~ F :.~ ! ! ,.Q x Z v t ",
"Q Q b.t.y.T z.Z z.9.t.r.t.=.>._ :.3.=.^ :.=.%.j.w.w.k.:...o.o.F %.:.o.o.*.a.i.>.! ] T 0.! *.Q Q Z *.Z :.R -.` :.e w.{ x G U L X ",
"..t.] >.d.l.i.v.v.f.z.' :.:.4.h.0.t.>.^ ..9.f.n.e.f.-.w.4.d.,.:.f.k.B.#.:.0.w.:.=.{ :.>.>.^ *.o...k 4.! w.T >.q.T ] -.o.Q J >.- ",
"..z.] *.9.o...Q 3.:.,.k.r.,.d.j.*.3.>.k ] :.>.] :.] 0.0.>.*.w.t...] >.0.r.:.:.=...*.] %.=.' ` =.| o.Q ] Q ^ 0.r.R _ =.> ] >.x $ ",
"3.^ Z Q E *.o.k d.,.t.0.V.o.*.#.9.` <.<.d.t.u.D.f.u.>.r.9.:.z.o.a.i.,.O.] ..>.] :.{ G ^ ] o.] :.] D ^ ..F a.0...% F ^ 3 ! Z Q V ",
"R >.n z ^ #.>.p [ Q o.] ,.X.:.] :...*.w.f.v.z.j.>.r.l.b.f.4.r.] y.9.>.! o.` Q ..o.Q f.| *.^ Q >...R :.U :.i.,...t E ! y ^ R ] G ",
"6.,.} ^ Q ^ Q Z f.~ Q ^ | [ ^ *.*.] 9.,.,.^ w.:.w.0.Q =.] ] ] d.z.*...=.=.Q y.9.3.3.=.] ' o.! ` ] ! :.,.4.0.>.o.6 ] m t.' ..T Z ",
">.#.-.] w.*.] : >.] ] ^ ~ ,.F d...>.>.w.u.>.t.C.r.d.Q t.o.{ ^ o.A.! <.! ` ] ~ t.>.{ _ t.:...*.*.o.*.y.] j.l.k.w.F D >.o...9.#.h ",
"^ n.*.<...-.x r #.*.%.%.>.t.a.B ] 0.<.0.<.0.a.z.d.j.v.-.*.] ..R f.>.' :.4.] -.r.[ >.! y.,.o.] :.] :.v.4.w.z.m.u.^ y.>.] ] X.A.9.",
"d.~ #.] >.` Z %.%.y.[ *.d.] *.:.=.o.d.,.d.] n.n.d.w.u.*...! ] ] n.*.o.^ o...9.r.:.f.o.Q i.t.*.>.a.o.*.d.v.k.n.f.o.:.-.! ! t.e.J ",
"2 ] v w w , H k d.q.>.h.#.,.a.,.:.*.:.r.#.i.>.n.q.j.w.` =.^ ..#.:.:.>.k.e.j.>.9.>.~ k.` w.r.:.:.w.` :.t.u.,.w.N.4 j v Z l Z x $ ",
"%.Q ^ l Q 9.%.x C.j.z.w.s.9.z.9.d.} 9.o.>.t.^ z.n.u.,.` o.o.+.*.K y.C.j.B.z.#.f.' t.;.~ t.n.] o.:.f.<.0.d.>.<.w.! w.! :.=.i.i.* ",
"=.Q *.z ` T U g p.] #.%.B.] :.:.:.%.d.k.#.:...e.j.n...^ R ^ ' :.%.*.o.>.#.w.>.h.7.:.9.*.w.] *.n.:.,.>.0.w.:.=.w.x ] :.>.>.V.0.H ",
"^ ~ #.Q V x g $ Q ,.n.:.*.' ' :.h.r.` w.>.{ *.y.a.k.a.` :.g ^ #.w.:.] >.^ *.` :.j.:.*.' ^ o.o.*.l.w.w.] ] G :.2.$ ! l J d.3.] V ",
"9.J x z p x S % 0.>.:.*.z.-.:.a.:.>.y.B.w.>.:...] =.:.T ! ] ' ^ U { ..-.{ =.*.| ! U _ Z Q o.%.' { ^ T ] p ..G ..  >.4 9.~ :.] T ",
"x x g Z G T x 4 :.T a.:.,.! <.#.U d.B.q.<.0.t...n :.B...:.I =.{ *.] ^ ` ....Q o.Q Q ] _ #.' ;.Q ] Q ! n ] I ] *.> d Q z ' ^ *.3 ",
"o ] 6 x ^ z T t :.*.U *.:.w.,.9.d.G.] 0.w.w.B.>.t.] *.] :.,.:.t.:.,.~ ^ S ..J _ :._ _ Z w.U %.,.+.*.Z #.Q ] :.] 2 Q ] #.v %.F = ",
"Q ` Z ^ k %.| Z *.{ 2.w.#.w.*.q.r.0.w.t.0.o.o.N.>.>.Q ` ~ ;.0.] w.a.<.I z.Q ~ _ T 9.,.] ( o.t.R U ..~ z *.U ] ` @ Z ^ K [ ` >., ",
"] ^ ! n.n g ] Q ,.*.' x >...:.w.b.o.t.] ,.0.j.k.3...:.Z 4.{ ,.d.>.z.L :.k B.] *.w.%.>.^ *.o.z ..D E ~ ] ~ ,.! a.6 ' ! } ] 0.3.w ",
":._ P m.x ` g C ] ^ l w.G a.,.j.q._ ~ z.J >.u.d.] 9...P ..<.0.%.>.z.:.] %.t.~ ] V _ >.[ :...*.' ~ ^ o.] _ t.%.] P ,.0.k :.*.w...",
"b.d.e.n.P b.R :.r.~ %.( 4.t.U ! *.{ :.] 9.0.0.*.v.,.>.o.0.-.,.0.,.<...| d.` | Q n.Q -.T n.] ~ Z ] ] +.:.>.Y >.{ T ..*.f.` *.O.x ",
"A.q.w._ j.Q 5 D :.*.o.>.#...' ,.S ] { { :.0.:.9.' v.-.Z 9.<.,.] >.] <._ >.Q *.' D +.{ ] U :.~ ] ^ ,.#.,.Y <.{ C.< ^ :.T o.*.] 9 ",
"b.q.{ C.s.0.' ^ *.:.:.,.:.] ^ w.j.[ w.%.7.:.%.:.k.:.:.' :.9.*.:.#.,.9.<.:.] j.Z ,.o.{ U #.:.#.] %...[ ^ >.' -.w.V :.>.>...~ ..F ",
"n.{ a.D ] m.Z z w.{ -.N C.~ t.<.q.%.o.=.8.*.v.h.x n.z.] q.-._ >.:.n.[ 6.C -.U ' ` :.N :.Q w.,.^ r.*.#.#.q.v.a.t.d :.<.x w.! ! 2 ",
"n.-.w.8.` #.l.Q ` o.*.^ ] l.o.%.w.' #.%.:.{ ] <.d.^ ' ;.:.w.-.Q d.C.' T ] T +.{ ^ ] Q q.{ d.{ j.0.:.{ ^ t.j.A.#.U ] J ! K 1 9.B ",
"_ n.%.w.*.Z ~ Q ] ,.:.E ] ..^ ..-.Q ] ' ` 6.~ 9.E [ :.,.:.] 9.~ ] _ Q d.[ z.o.] { *.,.-.%.<.o.%.' -.d.Q z.,.d.j.! P P ^ V Z x x ",
"9.@.%.m.Z *.n.x -.^ R D T ] :.*.] E o.{ +.J 3.o.' o.d.' %.*.Q ,.q.C.*.#.T #.>.~ g.Q X.:.#.,.,.:.*.q.#.z._ s.<.] w *.:.l t k g O ",
":.w.d.U w.{  .9 t.,.] T Z 3.:.>.i ,.U ~ Q >.R P 6.[ a.T :.[ _ d.C.S -.w.~ z.,.J %.! [ :.e.#.9.:.t.-.[ >.-.o.d.m.! ,.:.U ^ z Z F ",
"e.] { ] ^ :.g Z ,.=.{ f.V.S j.:.f. .o.-.] U ~ Q <.#.] <.P ,.%.d.:.j._ d.^ ^ [ ] >._ #.%.j.w.*.9.#.j.k.] ' w.t.] k ` %.o.R ] r z ",
"w.] D g *.0._ k 0.y.%.f. .9...<.B ..~ ] _ *.*...o.o.! #.] f.#.Q a.,.%.:.] { ] t.U ~ 9.Q *.d.#.:.Y t.~ w.o.<.z.>.w %.-.7.#.F x l ",
"<.C d Q T a v.Z t.y.V.*.] >.4.0.a.o.>.Q ' >.Q k.,.,.*.#.{ d.P &.G.a.#.] ] ` +.S ,.<.<.B.t.@.[ / -.A.-.f.%.k.z.z.p ,.a.#.G J T $ ",
"x P h.x ] :.E ! ,.c.B.c.>.,.:.3.>.<.:.:.#.R P ,.] t.] T E ] %.%.Z 4.( { *.+.C *.~ 0.,.z.#.k.,.^ ] w.*.] :.d.9.k.k :.%.Q *.x Q + ",
"] t C U ..:.s.l :.f.e.d.j.6.y.9.f.>.y.:.,.>.6.9.>.] ' T j.:.U ] s.{ *.{ q.[ >.S %...#.] 9.-.#.,.' z.o.k.*.d.q.q.T t.-.Q ! n.} Q ",
"t #.] <.] #.w.` w.<.c.w.C.n.j.n.e.j.q.k._ +.` k.Q U ~ E ' *.6.( z.:.q.9.~ w.] %.q.,.o.^ d.o.%.] t.T t.o.z.z.S.k.~ f.,.j.w.>.*.; ",
"x ,.k.k.z.w.' h Q ! Q 0.-.*.Z ! ! d.^ Z ] V T Z w.i V ! Q Q d >.Z ..Q T P q ) ` ' _ *.N T z z d ] w w ,.q Z i 5 *.] %.' c.G w.4 ",
"Z ~ >.! G.~ J j.w.e.z.-.w.:.! Z v ^ x l Q , Z ..3 k $ ~ ! ] :.Z :._ { J s ] ] :.n.f e.d n.,.o.U ,.( :.' z.:.b.z.>.' n.G.@.>.! P ",
"t.E a z.P :.~ ..Q B.] O.] f.:.G d V P G Z Z T ] x t g < S *.Q k 4.d S Q j _ { ' .._ d t.` Q ! Q [ a R Q n B ] ,.:.U #.g.f.#.t ^ ",
"~ ] U ] -.] ~ x o.h l.~ ] >.G | k x 3 x 5 T 8 P L ^ k L V 5 ] d :.r #.d ! ] U ] Q C :.:.D k.s d.] Z Q ) ^ ' [ ;.>.%.b.l.j.^ :.R ",
"n Q ~ ] *.] A T t.h | =.x &.1 j z k P , Z x Q T l d Q 5 Z Q w.] F 7 H ^ U 0 Z J w _ { C t.' Z L d U T T Q #.] l.k.z.w.q...*.` ^ ",
"Z ' ~ ] :.*.w...*.H O.G 0 ] ^ ] h k z Z ,.] P ] B A Z ] x e.z.O.] _ Z Q ` Z 9 w T Q M ] B l.D 0._ z B _ A ^ #.] ' z.n.:.G M.~ ! ",
"~ >.U w.] y.y.w.Q 4.:.E t.^ _ ^ T x J ] { ! l _ >.z %.! P Q x.Z 0 z.{ ` o.b ' ] Z ` ] D ] =.:.P c.v.j.q.*.$.T ,.p.T 5.:.Y ^ >.! ",
"[ d.a.^ ,.D 7.>.o.N.#.>.Q U m W l [ *.[ ! C ,.:.n.8 ' ] ^ ,.D - k.>.Q r.k Z ] ] N D .._ Z { ` m.%.0.,.0.{ t a.! L -.~ q.:.] f.G ",
"! ~ ' d.o.=.^ Z Z x :.U 4.] -.5 Q Q [ Z o.9.' w.' 4.V %.C e x Q 4 ^ k , e g t = 0 ~ } , ` l D l _ C d U q ] z k ! x k Z G Z y Z "
};
