/* XPM */
static char *_578675815618[] = {
/* columns rows colors chars-per-pixel */
"64 64 26 1 ",
"  c #78472F",
". c #7D492E",
"X c #774430",
"o c #794730",
"O c #7D4A33",
"+ c #854D34",
"@ c #8A4F35",
"# c #884F38",
"$ c #845237",
"% c #8C5137",
"& c #875339",
"* c #8D5339",
"= c #8E593C",
"- c #915237",
"; c #93553A",
": c #99563B",
"> c #94593D",
", c #9B5A3E",
"< c #A05D3F",
"1 c #9A613F",
"2 c #945D40",
"3 c #9D5D41",
"4 c #A05F43",
"5 c #9D6243",
"6 c #9F6649",
"7 c #A06245",
/* pixels */
">>=>2,755552555565552>::@%-;;:3234:3>>>:;**%-%%--;;:,:3:35475323",
">**$@%;==*=====255273:::;-;#%*+#434:::>*;;;;;@#@+#@@*;>:::32633:",
",:--%%**===>;*=**>53333:,::3:>;%+;337,:3:::::,::;*;*;*,;*-:>4333",
",,,,,:;*;::322;2*%*,733,,3<3,723:@@4363:4:::,:5:3>;@%*::**;;:432",
"333:::::::,:533;:;$$+::5:,3433:%;=%%,13343337,32,,3:>;>*;@%@-;33",
"3,:343,:433333:37<:%+##%*:>,>::*>&=%%;::;;,:::>,5757,5, +:;-*%:;",
"@%;:,:,::::,3334,2,,:::%*%&%***>2>5=@%*%@*@@*==>;35263:,,,:,:@*=",
"@@*+;;;%;@*;@@:;;>,,,;,,33>*:*;353>;>%@-;:@=*;*>*=;>,5655333>:-=",
"::@#@*@;@-*%#;;;%%%%%;%%>>::532,3,3:,%%-;;>>>>>;=*;>>>5555333:35",
"23:;;O--::::%%%@--%;%%>;;>;;:,:>:>,,,,,-;>,55723,****>&12>223336",
"44343:,2,:,,:,:,:;:>:,15>:>;;%%%%+@+;,,5716552,,,,>>%%=>:===#*:3",
"**:3,7:::33:,,,:,:::,7555:;:;;>::>;::725551>:,,435,:>=&-=2*==*;;",
":***;=%**@:::,::,,45235:33434,,,4,33355>,=%*%%*;:543::;;>:::;-;:",
":5>;;;=@*%@%%%%%;2:>:*:;;>,745,53,::>>***%;;;*%@;-:,,:::3423:3<3",
"3733::,>>;**%%%**>=%>*;:-%%*=2::-%%:%;>>:::>@;@%+@%,,,,3,<33343,",
":,7:,455,5,1>>>>>:;;:*-@%*>;>>*@*:**%=53332<3::;%@+@;,,,::3:333:",
";;>2,:27356352:7%o,3::3:;;>32,,::;>,>:;>%:,:1,,>::%%%@-;%-@;%>:;",
"@*=>;*>:35537454*%,:::333737:,;%:,5<,,-**-%-:,,,::::@$*;-*%%%*;;",
";;=>*=-;;;53447332435::5653:::**%,57554,:%%%@;:;<2,15::;::>:>;>>",
"::>:2;%*@%;:,,-:>::*;;;>;::;::*%%>>:52,1::-%;+;=@;5,,,,,::,,,256",
">:;;@;**%*@*@*;;:;;*=:*@**-*****==>;%%:,:,,:>>>>#**>>55333,<,556",
"::;::-;2**-;;%%*+**@#-;**;@:;**;***;%;-:>;::>=>>>>==&*=543,:5,12",
"5:<:3>22>:*:3::*@+###=;*@%:,3::>*;*;;,;,,1>=>>>*>;=&>==%3344<:4,",
"3>:3333335:,,3,:::#***;*@@%,,75:=%**%,,,:>::,5,:1=&>5>*=+*::<,44",
";*-;,55735<:;:,533:::>>>;+++;242>%@#;:,555:1725355==>>,>&+%%:%:;",
"**;;%>>>;==***>>3525<,:,,>#@=&>7,:;+O#$:,5567765,,::>==5>==$+@%%",
"**#*;:*;=*%===*&>27554,,37,:>>%*33:>$+$$$%=&-;;:,5,%>>:>5,>=%#;*",
">;;@#@**;;>>===#*#*:;*;%:::>***@;34,-%;%$%#$%@**+;,,;>:<22,5>;>:",
"3,::*+@;;25,5>:**$%++%+#@*>:=;@@++:2,155:>%++++%%%:,:,,,37515><7",
",233::-%*:,::::::%%#@#@%**-,:>:;:%%=5555,,::;++#@@%;,;:::>565>,,",
":,,33:>:::,,2,<,:,:>%:%::1<7,,::,:*&**=:,:,:--:;;#++$@%@;;>,1>,:",
"%@;:5534,,::,74<,:::,,,,533,47,:;:51==@++$%:3,,::>%++@#@;@%;>*>>",
"@@;*;=>****%#$;>,4726,65,>;>%:,,11551,:;%%+#%>65,1<>%**#%+@%**>>",
"**#*>*;&%%*=%$*%*>711>>>:>%%%%%*:555,2,,::>;%#%&>551165;+@@#%;2=",
">>;;*;:>&*=>>==5>$%&*&>**%;%%%#$&%%%%%,,::5>>*$&O+;,3>,5,:>,,:55",
"7,:-:;:231::2>*,2*#+%*@%*;%*+%>>&$+$@+@,:5555,>:>@+****>3554,,65",
"57,:4:::>5>:o:;*::,>;;:%---::=>5;$::%*+#*=>565,:;;:%;:;>=>>*>,55",
":2343,,<525: *;;,:::,:,,,,,:5>,51,,:::*$$++$;53<,2,4,,5+$&>>:%::",
"=>>373233,:,3,:,,,;,,<,4,,,2555333,7,52,%%%%++:,3,:,,43:>,2:;*:>",
"*=;>>::>::<,35,,43347::,:4,663:,,,::,,,,1,:%%+.+;--@@%;,5:>>%*;*",
"*=*=*%$@%%%-:;:::3::%:-%>;;2*;:;-%%#%%*>,,,::,-+++%%+@@@%;*>**>;",
":2>==;-*@@+%*;%%+@%@++%@*>***=%%-@:%**>:,5,,:--:-%@%@@+@%*:>,>,,",
"::2>=;>>;%-%%+$%-@-%%;-:&&%**>:%;%*;*>:*---:;;*;::::;;:%;,,,6,7,",
"337:>>:>;;:;%;%%@%%;%;;>>1>:::,::;>;>>*%%@+%;3:;>:133,3,::,,,,,4",
",76557:%%%@;%%::::>>1,5125773,,,:,32>;%;@@%*;,33,5755353:-*;;>53",
";:,5635::,::,:,,,,74565555,,,::,,,354::%:-*%;;>65>>>>=>=***%*>>>",
";%:,576557,55,65552:515>,:,-:%%%>>:::3:,:::>>=*==*%&=*>>**%@#*;=",
"*-;;:115567351,63:::>>>>;;:%;%%$%%**;:,4::,,5>*+#@*=%;>>:,:%%*;2",
";%@;*>=>2>2>:*:*==*=*=%%@*@:::%*%;%%+++,3652,5:;%:;,,4,<:4,,:::;",
":*@@*>>>*>>;;>===**=;**%;;--,,355>=;%%%#>3361:,:::,:,,,4335:,,32",
"2;:@%;#*=***=>>=>>>;*%>;::,:,,65,3::-;**%*=::3,,,;*%*%**:::,3334",
"53::*@*-=;=:>2:2:5255:5::,,:7255,:4,:>;>&+*%%%::%@%;*@$+**>*::33",
"47::3:;;->>75355,25,,<<,,,:;*>;,3::,3,4,:=@++##@%-:;;%%%*$>**>,4",
":334,:,>::2>=265574,<,1:::;**;3O$-@;:333,,;:-%@;,>,,:,:;@***;;,2",
";::2,,,:33,2=&*23,4,:-;+:%;;>;;+o%;@+%:333,;:7335657553::;*;;*--",
";*;:,,3,,43333:;>---%%%%%;;;>;:3,:%;%*#@:33:57525:,2,,7,5::>%;:-",
"*%%;:;,:<,,,,::%+-@@--%;>:::,3:4,,,:;;*%%*;;3>>*=*>>>>25343:,>::",
";**+*;%;--::::;>-@--@-%;:,6543::<334>>:*@@@*@*=*====*>:>:,33,3:3",
"%*%*+>%*@%-@%:,:@--:::,,;*;;::3::;:33,:;:@@*===>=**%*;;=>*;33424",
",:,;;+%;+@@*%-;:,-:,:<,,6>%*@#;@;;;23,,,3>322:>::;:>>O&>=;;;:544",
":3433#%>%%:-:;,1,,::,565555*+@@;;;,;,333573773,,:::,::;>=>*%*-24",
"434347:,,,:,::,-,3,,:=>5113,<::;===*@@;372555<,,:3,::::>2>=*:%:3",
"-;:37353,,,,4,-;**=*====;>::334::;#@*#=*=>:>-::,,::743,:33::#@:*",
";:::,553<,73<,1<5>252>;;:>%::3343::;;2=>>;%*:-:%%;::,323:7432:;3"
};
