/* XPM */
static char *_578675823402[] = {
/* columns rows colors chars-per-pixel */
"64 64 66 1 ",
"  c #7B3F31",
". c #6C4E2F",
"X c #7B4E26",
"o c #73442D",
"O c #7D462D",
"+ c #744B2C",
"@ c #7C4C2D",
"# c #74512F",
"$ c #7C512E",
"% c #6D4C34",
"& c #754632",
"* c #7B4631",
"= c #754B33",
"- c #7C4C32",
"; c #744738",
": c #734D3A",
"> c #7D4D3B",
", c #755233",
"< c #7C5134",
"1 c #74533B",
"2 c #7D533A",
"3 c #7C593A",
"4 c #824627",
"5 c #814B27",
"6 c #82462D",
"7 c #824C2D",
"8 c #8A4C2B",
"9 c #805027",
"0 c #82512D",
"q c #8A502C",
"w c #93512D",
"e c #98502F",
"r c #96582F",
"t c #824631",
"y c #834D33",
"u c #8A4D34",
"i c #834E3A",
"p c #8B4E3A",
"a c #914F37",
"s c #904F3A",
"d c #835235",
"f c #8B5334",
"g c #835835",
"h c #8D5934",
"j c #84533A",
"k c #8C543A",
"l c #83593A",
"z c #8D5A3B",
"x c #935335",
"c c #985536",
"v c #945A35",
"b c #92543A",
"n c #99543C",
"m c #935B3B",
"M c #995C3E",
"N c #91623E",
"B c #835341",
"V c #8F5641",
"C c #835B41",
"Z c #8D5A41",
"A c #915340",
"S c #935A42",
"D c #9A5E45",
"F c #8C644B",
"G c #8F684D",
"H c #986242",
/* pixels */
"dkg-jijjiMhulmjffd3kiyiyy-i-kbkud@py2djt6djkij3dd#5ydjjjjkkyi7l&",
"it2d2+yluijydhfpidi7*-<-+dyfjj<-dz-z<i0yif8kdi@*kgjy-pj2-by3y@i=",
"-kdik2iydu6i7d@2if0yi--OydjBkb+df7j@gt6kihy$ky----j+t3-fdjdyy2p2",
"fazj+2i-j*-yO=$dyj@63id2-djlf7<lyddd-dykfsgjd2t=2iOi>-3,$26kd2yt",
"jv2kij2dj&7tj+o-igj<-iyd<zkZ6jdOjjd-ludbkj27j3<@>g@dj=dO>+kxpjd+",
"bkf3<jij=7>dd---i-d<3yidkfjkgjijOj+gfjk6iyy-y@-<@>ijy-06-Odj2gO1",
"kkbdjddy2d-<yj--yd6y>g<dkkjyif,1j3j6k0jiXd-d:d2l-d7j>2gjy:jjiyjB",
"gfdgk$2@y<ii7-d,3>5-3jdvmfk->7d7=djjduj<6<,Oditf>+dyfjd#jdttkjdj",
"2diujfu7j+@-jdOi7@7@kkhbkkf-6y-O-2jfpdd@6+ydd7dlfj7g<7:yj-ji3xk>",
"3>ku-kyfdg7+j<27ijg72xdzk3jd<@*$@jfjjyjd2+d-dy@iVdzk@7-dX@%y$idC",
"dd0dd7dhjj-2jd;i7f7khffxdjd-g-=:t7gdyj>-+yy0j*fiyfdgNuOf=+o2@jxj",
"7jykkkgxd8*juuy2dkvffidf-gyjdO>dfu@$uy2i,diy*+d>yk>kfvd-h<o;g5iy",
"tfdligkkdfdkjkjkbhhyfy0dd-27iidkkdj-*j2idd@d+y67jOd-ih@djy54jyd7",
"hujijfd@dfjlhkjkkjfk<dy7ji<y67z$djw+i--dukVdj-2--2-ddfgO7jt7-tj2",
"g-fl26ukjkkkkmzjkjyzjd2i2i-ljiyg2dji0oOddikb<j-2<7+i37i4,j@i,dik",
"j-u:=7Oddzdjhdkkmhkkljy0y@d@bgufd2jjy<y0Odj7iyl2i@i<y6djjxjdd@-d",
"6<+<6f@jkd2hjkmfjjjhioO2yd3kjyky-td-yyk0jd-y2j=O+-y-03-<fidk7-=t",
"fdi62diyyfikjif0ddgjj*-<y2ivgkyy<j--ddjd2kO=ydd-yyOB2l3g@-7;=*y-",
"jdyid--Oiuikjjuj-f-j&62$ydjkjddjy+y>y-6dgdid<didfyk<jdyyO%7>dj>-",
"dddi-2+jil@yij2gd-2ji2yd-8kj@jjg2dy-iyd72Bddyll-0ffykdkodj>gOyi<",
"jiukjjj<@>g2d@i2@2dg2y@dykgf-<2jdii=ki2d-y2d-fkfy<f0jjddjyj7d;-d",
"djkh-udO2y<2dj-yi2j<y-dd27gk#jik2jdjiO@d@-dydjkduk7ifjOddi:jdxk>",
",bffydgOj2yz-2=-id2l$-d0d0gjOd@3idz-j=-Od-jfy$kj2gyhkyyyi7d3@dj;",
"hzkdyjd@d-<-i<-2<-2Og-7ujjk-$j2Bdjj2d<d<iyjk>7jdd-yyf2f<dg<yOj<%",
"pdidfxbkud1yd---j<d+7fakjld+-2-=udjjjijyydfd2,f@d,jjyj+dxkzk2di+",
"jtibkxfj>iig2j2y-$yydwq kj>yd-yj-j-ijgjjyk0d+#yi-6d-fdOt6gbuB>-u",
"ddklccqd6@=i2-d2tbydd8dyj+**d2ij7*>gigj2f27<<+dt-07->ilj$y<k7fj6",
"-i-kfffudf-Odkd-iefgfkf00dji-yfkhkjfdfdggd2i$-d-$2Oyy3djjy--6i6w",
"o7-difffd7-j-<hfd@ukjjj@yxf%j-j7j-yjykfjjy<@<d2iy2<+2.@;j-d7Ou<-",
"d7y7dgjfkddddfk-jdijhk$Xdy<jddjljdi-jddj--y>j26=d-pkO-d=ui-5O5j@",
"7jydd-$ydfddvjhkdjjd-ky$y:i-kjd-j-idjkijdyd2d-dgjdidgigy$j27d>dy",
"df7#-yjjddkyfckhdf+7+,y-d7j+dij-ki3dfj-2d-7-jjju-d;y-02O<j<@dgqd",
"2g4i7iyj8xyyifkhdd@-dji+@jiiyj22jddk-jj-$d<2d-zj=-gkfky<idj-yg3j",
"dOud22jj2lj7d*-dtd6@jyy<jd;2j-j2fjdfkdd-2o<y26u2zf<jkk7d0<@gdyd6",
"jB$dy@--jkkd@=yd-=j:j2ijydyi2yjylyjj<i-t-y=d2j<ddkbhyiijfjj$jtj*",
"jcbid0-y7d>j5O<jyj,2j,y*0jh6<jd2zC<j2y---ididfd7iyyfudddfjj:*t=d",
"dmkxu=---$2yj,ii73yy<i2if6gj35kiddjd-Oyy-yydijdyyjy<dhhGml-y;kfj",
"kkkkd=&y---j<d<&u%yijdjjgkd2kBjhg7<y+><7jufjuky<d-mO2zzkdu-i=-d@",
"hkjhky@+2yy-tj3@+i<-<@k0jdijjgfkqj@--ddyddqy7$jg:-dj>jjfkfjjdxji",
"ndkjFdj2-<2@y7326<-jd2j>7Bg>l$uz6-=+jjkdff-d--=djyy27@ddkfbk-jdd",
"kkdd>dkdjO<@2-g-7-@=yy7jjByhjvjj<<-@$kigf-j+iO6j-y$+>$yydk62jxj2",
"bijljkdkddd>-g--yi@yyO-$yB$udlOj7j,-kfjdyO----<-*=-@--gikj@<7d<y",
"-ddjdjjgjjdjy+yj-y-dydj-i-fgj87lddyldjy7@jdO2,j-:i=@fy-2jjdydjg1",
"jdj=k2jddjj-ygkydddddjj5f-j8fdjjy22y7-yfjy<j<-----y-=+<jjj3j7y-d",
"-iyjtkjjjldljfddf3yfuj=2@277jdjij-udy2ifd-@di--*@i-y62+yyidjk<Oy",
":-gi2jyfdkbfkkfiyf72<+g<y-dd<j<jg<dydki-2j2y2y>Oj=6yy@6y#-ddbjfO",
"=i7$u<<i<jkkkdk-dj<yjdy-jkujk1yyOj<kdjdg7-7>>jOy@d=2@>,=3<2=kkyk",
",y>i7-j7jydmflgjy-jyiBdkij3y@=-yOujj2j-0j2-2g-j-$-yj7ydy-liddyjz",
"jjtdOOyyy$kjddyO@>7<j-<jdk-oOjk7lkjki<-yjdigjjj<%fj-m-d+i-1yO$ky",
"ku2-zj$yO+7:dj3&-j<i@7-ddj*=7>jdjS0y7;+j2jOjdjyi2i7$ddukjj7-yfid",
"i$2Ogdp63j=@2-yi>@idydp-gjy<-*kymbdi2>--1d73lkuffk<ibyj72fy-yy-f",
"y0dj5ddfij2jy=d$djqykydddjiy--tg<if2y0@>y-y6ihfkxjfkl-gmfkkdju78",
"wjjB8k87kjidk$-li2vuy>df+&@dgyd-ubO-y<<ty$fgddfdddhxzOdgjj2@d@jf",
"<fyffjh7220kzyvigzxrddiy7*ydf-46yj2yitig-zyudd78dxHkuuuimZffkjid",
"njujXjmjxffhbvvvhgkh@jyddjyyk,m<i+7=+6<-yddf2ijufj3ipytkjfkd2ji-",
"kfkqddhwqfxvdvvmfmdfd-0d=bf>qd&f+<j7i-ykb@0jjljj<u++y*djfkjkdSgj",
"Ncvhkydzzdffxhvmk0k76-5-ddjzj8yjO<7jkibvjjlf11dt4,>o2+7-jdkkjidy",
"ffNhmhkd2dfkdqhuzk,kB-dijfu7fd*i@>7iZ-cfkjt<=-o<q,0k1-iylbfShjdi",
"fiz@dkddg<kh<di0ki<@jd7d@hk7gj-d@-lpfyuddg->&Ola-ij6t-y>d0lkkkky",
"kjxbkjk@djlzd-jj-dt7yi<fkq-gy2j2yfudfkfu<i2j>$-gi<jdy2iji2jfkdS<",
">gfOfkyudk3>0>y0Xy7jky@k*-udidudykf0l7dgt2k-k-bkzkg:Bfd<2jtjdh@d",
"Odlfk7m0@xdjgdkfydfk7kkjjtg7-ykjdkh2uu,tyigdiimm<bfkhyjfBy2fjtua",
"iiyd8ffumSzjkfhdbykyiq<9i$y7dfkz7pbyjji:kdyhky6Dmuxqn=yg36iy<yuu",
"iB2yjyfjnDulzh7vfgdkd<ik6y27ykjdykaZ>2g6>kujBd-xbdd3k0kjjO7i2jB1"
};
