/* XPM */
static char *_d89bf79b16c4fe7da11d7192f60fba8[] = {
/* columns rows colors chars-per-pixel */
"64 64 41 1 ",
"  c #64422A",
". c #6B452E",
"X c #6E4631",
"o c #704731",
"O c #714A32",
"+ c #715037",
"@ c #745139",
"# c #7B533D",
"$ c #7E5640",
"% c #83573A",
"& c #86593B",
"* c #8B5B3E",
"= c #8E5C40",
"- c #905F42",
"; c #8E6142",
": c #85634B",
"> c #936345",
", c #9D6B46",
"< c #966649",
"1 c #996648",
"2 c #9E6C49",
"3 c #8E6650",
"4 c #A36D4A",
"5 c #A96F4D",
"6 c #A6704C",
"7 c #AA714E",
"8 c #A27556",
"9 c #AD7251",
"0 c #A9795A",
"q c #B27553",
"w c #B57857",
"e c #B57B58",
"r c #B97C5A",
"t c #B5815D",
"y c #B9825F",
"u c #BC8561",
"i c #C28765",
"p c #C48866",
"a c #C68B68",
"s c #CA8D6C",
"d c #CD906E",
/* pixels */
"pasputuetuet0tytidepsdddddiittiytwttuuddddddddddddddddsadsedaed6",
"seeqrr9q,14,q74744,7rerqrrq475q4,,,,wq6tw57r7rrrrwrqrrwwrrqwrrr,",
"y,,qq2er77q,9q997qqqqqqq7,447,,,,,,,44,,,,479r7,,,,6qqqqqwqrerr,",
"u92,429w9qqq7757qq74qqq79,,4,74,74,,q,4,49447q,,,,669qq6477q,we7",
"u5rrr,r4w4,,,,,9,,,4,4467q74,9qqq,,q99r,qqq7qqqw7rrw6,6,4,,qqwq4",
"srrrrrwew,,44,,r,,,7,,,,qqq9qqwqrqwwtqrrqerqqqwqrrr7,6r,,,q7qqw,",
"srrrrw14wwrrr7,wr67rr74rwrwqrrwwrrqrrwrrqwrrqqrqwrrre7qrr,rq,rr4",
"srrr9-O#4rr4rqrrerrrrrrerwr4rrrwqrrrrrrrqr7rrrr,qrrw7rrqrrqrrre,",
"arr7,%.O>447,44,,44rrrqqq26,4rq,qrrt,,444,,,46,4qrqqqqeqwqwrrrr4",
"d7eq6,%&4744,4,,,,9rrqqqq66,,4,4qrrr495,,,9,66,74q4qqqqqqqrwwrw,",
"a41q,,,4q,q7q54q49764,14,rrr9,q,qqqqq559q9q4><6q449q,,qqqqqqqqw,",
"d,w,,,qq7qwwqqqqqq92,774,q92r7rw4qqqq944q49*O@29,,,,,,qrqqwqqwq,",
"dr7rr7rrqqwqqqq5qerr,wqrr4er,wq7,5,454,,547*oO,qqrrw2rqrrqeewrr4",
"srw9rrrwrr,,qq,qqerrrrrtr96,q,7rq4444w,,45q7->wwqrr991rrwrqerrr4",
"3@@++++##@###%O@#@$$#=#$$#######@&%+@%##O@@O+O##+#O@+++++@#=#%##",
"    O   .. .Oo .  oOO O .o...OOOoOooOo.Xo. .       X   .  OOOOOo",
"adaddddddaddddssedsdeuu80euapdd6dddpdpiiiiequpppdtdypydddsdddddd",
"wr,r6e,e7wrrrwwwwqrw66%O@1,2rrr,drrw,qqq44qq9qqqrrrrrrrr4weq,,t,",
",w,,,67,,4,,4,,q,,w7qw;oO>5qqwq,p9q77,,qq5,44,5qerrr4w5q,*>,,,r,",
"67w41q,,,,,,,47,,,,69rw;*,qq,q77t,q,,,4444,,55qqrwqq7774&o#1,,,,",
"rre,7qqqq5,q4q6q2rrqrrre4,4499,,w,,,4qqqqq74qqqqwqqq9445&oO-7qq4",
"r7rrqrwqqqqqqq7q9r,qrrre444,,5,,t,,747,qqqqqwqqqqqrqq94q7**57q9q",
"w46,qrerqr9,4,7,,,4,9rerrrw,4q,4dw6,qrwrqwwrrrqqrrqwwr4744,9,,4,",
",,,r7rrrwrr4q,,,e7,95wwqqe5qrrq,d7,twrr444r7rq9qrwqrrr444,,,,,7,",
"rqrrerrrrrrr6rqq9q4,,,,r94eqqqr,t,q,,4wq,444,949q5qqrqeeqrr74wqt",
"wrwqwr,rrr6wrrerrqqr4r5r2rqqqqq,tw,9,4,qq955,4444qq9rr644rqwqqrw",
"rqq4,,6,7,7qrrrrrrerrrrr,qrrrre,d,rq94q9q4,9,,44444,r242,7qqqqqq",
"qqq7,r,1,,,4rrrq,7wrrrrrqrrrrrr,urrrqq4q5944444,,,06qr94qrqqqrqq",
"rwwr6rr64,66,64,4,r49qerqrqwrrr4drrrr65q2,,44qq7,r45erqe4r9wwrrq",
"r,rwrwrq6,,7,,,07,,,qq99qwqqqr74dr4tr6,,44,,5qwwqwrqeerr,qrryrwr",
"+++#+@###@#####=$$@$$##=$$$$###@;++++@O+$##$#%##$#%$#=%#+O+@++@@",
".    ...oOOoOoOOOoOOOOOOOo..  .      OOOOOoOOOOOOOOOOOO Oo    o ",
"astiddeytweddyteyitaydddddaspeyutetitddydddddsadddddsddddpptedt6",
"d4rtr464,7,4q,,44,44rrrqr,q,,4q,,,,,,qwywqrrq14qrrerqrrrqqwwerr1",
"p4,,44rre49q6,q997qwqwqw4,4,,7,,6,,,,46,5q44*O#4,4rr5qrwwqwqrr7,",
"t,,w,6w9q4qqqqq774qq946q4,,,,4,4,,,,4,645,,4*oO>e,6,64757qqqrqt7",
"iq4wr,rrw,,,,q4,474,,67,qqqqq774qqqqtq46q4q5q**7rr9r4,,,,,,4qqr4",
"irrtrrrtt4,,67,1,,,,7,,,qqqqqwwwqqqqwwywqwqqq999rrrwww7,q4w4q79,",
"drrrrrrrrrwrr,wwrrwqrr4rrwrrrreqwwrqtwrrrwqrrrrrrrwrrrr,r4rrwrw4",
"drrrq,rw7rwrqrw;4q,rrrwwrrr,wrr7rrrrr7r9rrwrr5wwqrrrwqqwrwrrrrw,",
"drrr9,,w,,,7w,&O@1rrrrwqrqr,,,,,wrrr,5,4,,w,,5,9qwqqq9wwqrrrrrr4",
"sw4,4,4q577,71&.O-6rr,q4q9,4r,,qrwrq444,,,,,,4,4q9455,qqqqwrwww,",
"y,,,,49qq49,9q9**77,,,464qwwr,4wqqwqqqq45959qq5559,474qq9qqqqqq4",
"t,,,,5qqr5qqqqqqqqrr,,4,,47r7,qe55,,qqq4q4qqqqqq,4,,,4qqrqqqqqq,",
"i5,rrrqrqrwqqqqqree4rrw6ew84,7q79,99,,4449qwwww9wrrwerqrqreeyrr4",
"drryq94te9rwrq47qrrrrrreeq44r4ww,4,444r,94qqqrw,qrw9rrrrrr4rrrw4",
":+++++#O+++@O+@@O$$$$$#%$$%###%#%@@##%#+O++@@%##++#@+@##+#$$%#%#",
".o..        OOo X OO .O..oooOOooOoOOoo..X.       o. Oo   XOOOOo.",
"daiaseddsdppdddadtdaetdtet0ptdd7dddpsipiiwuwiipddddeddyddtsdddad",
"7,q7reer,qwwqtww6wr6,,6w7,q7wrr4srrw9q9qq74qq9qqqrrer,7w,77wwrrw",
",,,4,7,94,,,,6,6r,,6errwqqq75r9,dwqqq,,,94,,,59qrrrw7r,46,,4*>e,",
",t,44,,7,,,,,,1,,14,rrrq,7qq4q,,p5qq,,,,,,,444,wrrwe6,,q,74&O#<,",
"wrq,qq5qqqqq6qq4qe,9rrr974q,,,4,y,,7,9,q99qqqqqqqwq77q77qq7&.O17",
"qr4wq7wqq9qq6qqq,ewrrrre7,r4,rw,w,,,4579qqqwqr9qrqqqq7q499,7*;,6",
"w,,,914ww7r,w7,4,,,5qwr9rr,rwr74yqw477rwrwqwrwrwrrrwwr,6944,,,,4",
"4,w,&+@4rrrrq,,74,q44rrrw6trqry4dqywrrrwwrr4rrrrrwrrr7r74447,6,7",
"rrr9;oO2rqrrqq,rrqq5,4,,,qqwqqq,t,449qqwq,4,,4qqw7qrrrwwwrrrw7wr",
"erree==,wrrrrwrrrwq,,7q,44wqrqr,y,,,q6qq,7,46,47qq6r79rerqrrrrwr",
"wwwq,q4q4qqwwr7yrrwrqrrerrqwwrr,irr,7qq759qq,,7,7,,97,6,47qqqqqq",
"qqqwq6,7,77qq7rww6reerrwrrrwryw,drrrqqqq4757,,7,7,,ew,,,447qqqqq",
"rwwqe,74,,,,46,4r6,6qwqwqqqqw7r4dt9ywr,,17q,9999r7rr,rw,rqeqqwrw",
"r54r26er74t,q,,,,2,,wqq0qqwqw4r4d4tqtr,,w2249qqwwrrrrrerrr9rwr74",
"+#$O++$$%$###@##$#+#=$#=#%%#@+++;@O++O@@=@##$###$$=$$$$$+@@+++%@",
"   X  OOOoOoOOo.XOoXXXOOOooX..      . . OOoOOOOOoOooOOoo        "
};
