/* XPM */
static char *_578675832516[] = {
/* columns rows colors chars-per-pixel */
"64 64 78 1 ",
"  c #7E8274",
". c #858476",
"X c #868678",
"o c #898678",
"O c #8D8B7C",
"+ c #81887D",
"@ c #908E7F",
"# c #8C8D81",
"$ c #918F81",
"% c #949284",
"& c #969489",
"* c #99968B",
"= c #969A8E",
"- c #9B9A8D",
"; c #9C9D93",
": c #A19E93",
"> c #9DA195",
", c #9EA399",
"< c #A2A296",
"1 c #A3A59A",
"2 c #A9A599",
"3 c #A5AA9D",
"4 c #ACAC9E",
"5 c #A6ACA1",
"6 c #ACAEA1",
"7 c #AFAFA9",
"8 c #B1AFA2",
"9 c #ADB1A4",
"0 c #B3B2A5",
"q c #B4B4AC",
"w c #B9B5AB",
"e c #B5B9AF",
"r c #BBBAAE",
"t c #B4B5B0",
"y c #B9B6B0",
"u c #B6BAB1",
"i c #BBBCB3",
"p c #BEBFB9",
"a c #C0BCB3",
"s c #C0BFB9",
"d c #BFC0B5",
"f c #BFC1BA",
"g c #C0C1B5",
"h c #C2C3BC",
"j c #C9C4BE",
"k c #C5C8BF",
"l c #C6C6C1",
"z c #CAC6C1",
"x c #C6C8C2",
"c c #CACAC5",
"v c #CECDC9",
"b c #D0C9C5",
"n c #D0CECA",
"m c #CFD0CB",
"M c #D3D2CC",
"N c #D6D6D1",
"B c #D8D7D3",
"V c #D6DAD5",
"C c #DADAD5",
"Z c #DCDDDA",
"A c #E0DFDA",
"S c #DDE0DC",
"D c #E2E2DD",
"F c #DEE0E1",
"G c #E6E6E0",
"H c #E8E7E2",
"J c #EAE9E5",
"K c #E6E9E8",
"L c #EDEEEB",
"P c #EEF0ED",
"I c #F1F1ED",
"U c #EFF1F1",
"Y c #F2F4F4",
"T c #F8F4F7",
"R c #F4F8F7",
"E c #F8F7FA",
"W c #F7F9F9",
"Q c #FEFEFF",
/* pixels */
"i756p6ph5Nsw;7ylcplMx7y6as7phhiMZhcMclcmvNcclvpncNNikzfMNclfycpx",
"h2&#q3;668:60:i6w810ui6565q:<q4dl0yxiiflhgihcqhchppih0ydiufgeqyl",
"7t#238rq0r641358a3;10012565:<94pM94ediphgpegctgzyphzhdfq0u090hpi",
"7#26q152:p8i02ry2316w3125592qq9uMj1qiiuypgpppgewq8ep0qj0d6r3utsx",
"7;0:2-81;63qir6q-;3w<<1562w60r0hgidikyiqyg066fjdeeqw0ikiew39wtyv",
"M9526:06301y052-:q206;2265qiri0vjdiquqjhggeu0diihieheqr<339ywpii",
"x7:6wi8:0015:&-:36w3:23423qfi5tvMddidthziphciiyqrwweiq09,80wtlic",
"p158i5rlBhgiphshkzzjhnkkly0yqiufuddifdrfeufidhfgfiffpjjN85qwlcql",
"hy60e,qhcBkBZchZZMueijweq<5433r00q9ehqkvgMepiMCMfuDhGxfip:w1ye0g",
"li51i6>wmyidZge6MVvhep3vkC0idggidjzfcchhjxMv0VM;puCzgqhjfq,3qiuc",
"lp6qr:3pZldMDze-qDdexhzer3q9izwpieciMkj49Mjr9S1%q0CMjqcil5qqihxx",
"iqiq0g0xZlixLiY6xDclxcp8VZhcdeM0Mv4f8cd*vlduzSZ0Q&IMM3j<h56qqffc",
"v7uywwdkDdiWz4SVcjMckj34ghph0GlMiDjivVM3VhNBcpuCZ@MKvfM0z5i56r0c",
"xi,wq<fcDRvmuqgkqfClqgzyzjziqxfcgzhdzPf7hlZ=Lz60iieX>BY4h671wwef",
"xf0pq4wgvejY0gNhqhDUQykcdi3q6pqqti1trzDezVUQ364iPH-QZ6v5vy68pq0h",
"xeqqr048Mi4zHqSBli4cVCMZd3d0dSVwlHj6ivdQCd>114JZLygI>=crh-510u8h",
"q50iifdhMl41x04JD8740mB0ju5n0:4i031zwis;0V<3eJMRh>qz-%Cuq*3u0eqp",
"h99edyehdLDPk8q0MVlezM4-w>q0puqzfthx08s;-QQBGyD;3y3nJYPeh%6qurqp",
"mwqwqiezgNvSzD09lvBBQj*1ipq91:;19580txh6&6YH2S63<Pjizdv0i8iwiwlv",
"l5q6q39y0ijhiVz04vcKh0&dgw4kiu5i06v0eqhfw&>pPM-<J1iz46j1uq694epl",
"h04kiq4k0dzdiDD44vZhqeMyqq84zhiZcgt2rud6ih-%HQ4-WVpc8CB1kp560iiN",
"q,diutihxcddBcJ9VQvqqMwidddei04wrzyx0deg6iM&8QW9Liq01hK:mp50yegv",
"cf4dqdqkdzViieVDiVreBpzr8nr8qdM4iihdfy069hhp13ghBgdixic%cq5diwiv",
"fdhrwwwrhH0j8dlYidjvkdi1ppiedvihjiiqrdk64hyciq>Bn810Z0R$Me0tqiic",
"hqqeie8iMegyMBVxdViMfzq9MMMCNZSSCRJDCDJhqqMwc3q1DDpi-9M&Mpwvi0pz",
"ftppjiyM9zdiCzdixiMizdhuNMjiceyehqh4rMCg4rdgdkfh1BVG%SGOMyekirpz",
"ldijgiecdZVhCv4Mhinghcxevv44JhTDvH0gzhZj3crq0q3dq0Zh>CJXMeepiiph",
"fwrxzieMhxgcMg4NclvgigddDnvBiycQ09pNDVDM0hfvdM4Dy0>dic8.Mdpyfqiz",
"yqyghiiNqqzeqpelndkeejcxJic3,9qQ033%=%dV4Ndqe00DkdM*qk3%Mfughqdf",
"h0ttdiiM1igdGzylljjdzjrcP4@>80dQd0ZBSNhVecSwhedvkwND#yC<zqyrdj4r",
"qwggczidlcivcmdgqxiqcxixVjUQQreq0pQQgjeCdhD4f90hp1eMg2c4cpqeiiqy",
"ZMNDYHcVllmcflcfjmllMkikL4;cQM4&:rQg1;VD9dN0hrC030qCfg6-YZCDYNCC",
"hcMMlulCzm7xMfdhhvdqvgqxJ2o>yfu%3xw0p0bJ7zS4g0qcq4kcq0e&vizhkryM",
"hehMqtqvjxxdPNjrjziiCyelDM1QiO26rw1QY>nCqkD0f0jMv-jY1wC%Zirew1qd",
"hiiifzcNuiidecdqdiiihdjrC=UJofQ-9Q*3h8yZ0vdey60djcV1qixOMjgh06df",
"5diipdgMhCvxMievzMi0qpmmCqf3&QQO1pCQweNviwyjii8B-q-jiiy M8iw6wru",
"cachxghMdmSekMghcdqf0zjmvc#i516rr4Qi;pMgrM0keh0ff&zb3MV@zddxyt8s",
"v8yaffgMqcpzqSMji4Srweqihfi83X6FS&>&qfZq0rihycix1Vyv*vMojfiig6lx",
"x4icqqezeje8qirr<3ef0vpgBVhMjvp9eiqhgMGz33Nwieu<Sgvk40vOvreyw0uf",
"f0p0ydpvqvg4Vqckd9iCq8j3ZvzMZIJIIHZvhcHh<i0rZ03xvre0C3Y-Nqqdy03p",
"iw0tipgxiHijcqvNMv>wMd8h530316;6<1;>-3fqwnedt0;cvzdic0D*c0wff03d",
"xw86peeq0cd0vqSHyQi@wkrd05gcy63i0u6ekieeqrNi;MZ,DneVeMJ-bwweyffh",
"qi8uqjyhyhee0ZSr-SZw-hSpqe06xfVkMDyi<qqqqvr*MUZOdRVvdrD%mpquudzz",
"tqwpu56jyc0gv3M01hRc>4zm66pwiq0863q6i0w6n9*igYi#3YfckZM%xw6udizl",
"iqwku3qm0jr38Qg0g<h4Dq04gffwqwwq89q05rvz0-BIgyv01wD4iiB&ve6ir0xc",
"qqricr>xwDZCyrpwtB1MMYza08hcu000356u0e01%MQDNcCdO0Mpdjz-Nh0wpgih",
"l9q0xu6p4Dgi008iMiZ8gMYe6vu9306rp0i660l,riMqiGcGa@-rDJE*ni0dipph",
"lq,4ph-vqf4qv0BzNw0g8icDitgyfrkiwy0rki1hzZ<o1=cNZg3z08Z4Mpqzzlcm",
"p3,q6q0vgtjR0ijcgtdiaMMqficiuhdeed3kqefwhHDm1>4kDVgYx%r8Mp0hhgfu",
"6wwut5efeG0;uvj10gHeLv8airc0jgqqeqwe>Vf:1evHgm>=dmM2Vh86Naqirixg",
"0dpp0;1f4ciAmMoMw0e4v3ividiq0vcieMM0rxM>3NzceM1qC9jhjeS4Mdqiislp",
"qipeue$x6ni0HqNk8Mddg0icivfi9fcrrNiwiMh0ejddejHxZvcNNem9Mw9rpzpl",
"ccuir-*h3cqh0ec>6Mkqd8qh404jqjwqk0qqi04igcqj9jC1;ilqg0J4Byrpyrdm",
"pciip1 i9iwz0m44dCjgy6zrgvhdvxrwedr3MMr-rfdzhxJ>&7NeqtH,Vigvpqfg",
"Baiqy0*l9MrdrMvqurq3q0MMNiqiiiqpdikegdcecMmmgcSSidGhBhM0c38w8efM",
"Mppf80hAMvkdeghheqrcjgahpirdhuefjqiipdeyw0wfiriffxxfjhhNmiti0fxx",
"pwur1ic36q6>wqycvgvhhzpjcnc8r0tkjqq8redq6f305q4eye6031:55w:$6tv7",
"5fh0dy0010r1669zlsqqeyypgkfdiduk7deddreqqii1qpqq6u6yzr3riwa62jCq",
"yhdwdiqkim93fqudzegdppglthpymmrjdkrrfewrpgu9pwd91dwii6386<236ifi",
"huyqpuvf0xcrvjchchjkghcghzufgr1jhheedfdipw9yq,tukr60w9p23*:<r9uu",
"xqwwyu0y0pfifdtfdpgdhidrhzsip83reeeeeiiirferp0yircwpr1ws8:$6i34r",
"p680i01,600y0q0qipeqqiu90r0yqq4vz0yeey4qqee80e0i>-<32136367rr3>p",
"u63uepq5e,yeuiiixyi7xi300qeq6hiCi0h00i00h0r1y98:3;e:-1<yy366<q9q",
"yqphlcqplyiticNMcvcvvcvidjplxiigvpfhcVjkpldvyputlliycplchqt5gqif"
};
