/* XPM */
static char *_578675839457[] = {
/* columns rows colors chars-per-pixel */
"64 64 256 2 ",
"   c gray33",
".  c #555555",
"X  c #565656",
"o  c gray34",
"O  c #585858",
"+  c #5A5A5A",
"@  c #5B5B5B",
"#  c gray36",
"$  c #5D5D5D",
"%  c gray37",
"&  c #5F5F5F",
"*  c #606060",
"=  c gray38",
"-  c #626262",
";  c gray39",
":  c #646464",
">  c #656565",
",  c gray40",
"<  c #676767",
"1  c #686868",
"2  c DimGray",
"3  c #6A6A6A",
"4  c gray42",
"5  c #6C6C6C",
"6  c #6D6D6D",
"7  c gray43",
"8  c #6F6F6F",
"9  c gray44",
"0  c #717171",
"q  c #727272",
"w  c gray45",
"e  c #747474",
"r  c gray46",
"t  c #767676",
"y  c #777777",
"u  c gray47",
"i  c #797979",
"p  c gray48",
"a  c #7B7B7B",
"s  c #7C7C7C",
"d  c gray49",
"f  c #7E7E7E",
"g  c gray50",
"h  c black",
"j  c black",
"k  c black",
"l  c black",
"z  c black",
"x  c black",
"c  c black",
"v  c black",
"b  c black",
"n  c black",
"m  c black",
"M  c black",
"N  c black",
"B  c black",
"V  c black",
"C  c black",
"Z  c black",
"A  c black",
"S  c black",
"D  c black",
"F  c black",
"G  c black",
"H  c black",
"J  c black",
"K  c black",
"L  c black",
"P  c black",
"I  c black",
"U  c black",
"Y  c black",
"T  c black",
"R  c black",
"E  c black",
"W  c black",
"Q  c black",
"!  c black",
"~  c black",
"^  c black",
"/  c black",
"(  c black",
")  c black",
"_  c black",
"`  c black",
"'  c black",
"]  c black",
"[  c black",
"{  c black",
"}  c black",
"|  c black",
" . c black",
".. c black",
"X. c black",
"o. c black",
"O. c black",
"+. c black",
"@. c black",
"#. c black",
"$. c black",
"%. c black",
"&. c black",
"*. c black",
"=. c black",
"-. c black",
";. c black",
":. c black",
">. c black",
",. c black",
"<. c black",
"1. c black",
"2. c black",
"3. c black",
"4. c black",
"5. c black",
"6. c black",
"7. c black",
"8. c black",
"9. c black",
"0. c black",
"q. c black",
"w. c black",
"e. c black",
"r. c black",
"t. c black",
"y. c black",
"u. c black",
"i. c black",
"p. c black",
"a. c black",
"s. c black",
"d. c black",
"f. c black",
"g. c black",
"h. c black",
"j. c black",
"k. c black",
"l. c black",
"z. c black",
"x. c black",
"c. c black",
"v. c black",
"b. c black",
"n. c black",
"m. c black",
"M. c black",
"N. c black",
"B. c black",
"V. c black",
"C. c black",
"Z. c black",
"A. c black",
"S. c black",
"D. c black",
"F. c black",
"G. c black",
"H. c black",
"J. c black",
"K. c black",
"L. c black",
"P. c black",
"I. c black",
"U. c black",
"Y. c black",
"T. c black",
"R. c black",
"E. c black",
"W. c black",
"Q. c black",
"!. c black",
"~. c black",
"^. c black",
"/. c black",
"(. c black",
"). c black",
"_. c black",
"`. c black",
"'. c black",
"]. c black",
"[. c black",
"{. c black",
"}. c black",
"|. c black",
" X c black",
".X c black",
"XX c black",
"oX c black",
"OX c black",
"+X c black",
"@X c black",
"#X c black",
"$X c black",
"%X c black",
"&X c black",
"*X c black",
"=X c black",
"-X c black",
";X c black",
":X c black",
">X c black",
",X c black",
"<X c black",
"1X c black",
"2X c black",
"3X c black",
"4X c black",
"5X c black",
"6X c black",
"7X c black",
"8X c black",
"9X c black",
"0X c black",
"qX c black",
"wX c black",
"eX c black",
"rX c black",
"tX c black",
"yX c black",
"uX c black",
"iX c black",
"pX c black",
"aX c black",
"sX c black",
"dX c black",
"fX c black",
"gX c black",
"hX c black",
"jX c black",
"kX c black",
"lX c black",
"zX c black",
"xX c black",
"cX c black",
"vX c black",
"bX c black",
"nX c black",
"mX c black",
"MX c black",
"NX c black",
"BX c black",
"VX c black",
"CX c black",
"ZX c black",
"AX c black",
"SX c black",
"DX c black",
"FX c black",
"GX c black",
"HX c black",
"JX c black",
"KX c black",
"LX c black",
"PX c black",
"IX c black",
"UX c black",
/* pixels */
"3 7 2 : 2 - 8 3 3 t e 9 6 p 1 w 8 5 < 5 1 > < ; 4 = < - 9 9 8 5 7 : 5 < , 1 3 = > 1 2 7 2 8 1 7 8 - 3 ; 3 2 4 1 5 9 5 , 1 2 7 @ ",
"1 , < < > * < 7 4 3 5 1 7 8 q 4 2 7 2 > * = > - % 2 < 9 < 8 1 ; 2 e - 9 < 5 , 3 3 w 3 4 1 2 $ * 4 3 1 1 = 7 < 5 , 0 > 5 ; > , * ",
": 2 1 3 8 < , , 6 4 : 1 < 1 > 2 3 8 < < 1 ; : : > > 7 3 0 r # 4 7 1 3 < 3 , > 9 < 0 1 < 0 > ; : 2 < 1 & - < , 8 5 4 < 1 < : 5 < ",
"0 w w 4 = 2 1 > 6 O = ; = # ; 6 1 1 ; - 1 > 3 > , 5 5 7 6 1 < 6 1 2 : < : 8 - 9 w 0 5 1 3 > 1 @ < > : : , * 3 * < < > < 4 > 1 & ",
"2 t < 8 1 : < < > O 1 - 2 # o - 2 8 3 < : > ; < > e e t = 3 6 = , 2 < , 8 5 7 0 5 3 < > 2 , : & & 4 ; , < = > = # = 6 t 6 2 2 * ",
"r q 9 2 6 2 2 < & > = 7 2 = = : < ; < < 1 1 > 6 q 7 8 4 5 2 - 1 * 3 - 2 w 4 w : > 1 1 , > , < : : , 1 1 < : 2 , < : 8 8 < 4 > $ ",
"8 e 0 1 2 8 2 ; , 3 , , < 1 , = 1 1 = 2 > 5 1 2 r 8 2 , , w - > 3 5 1 3 q < 5 , : > , 1 # 6 1 5 - 6 < 3 , < 3 2 > % 2 : , > 1 2 ",
"6 9 7 6 0 ; : > , < > , < : : ; 1 * , > 1 6 3 s y 9 7 * < , , , = 1 6 3 2 3 7 = > > ; * 2 1 < 0 < @ 5 : q 3 2 - 3 1 : , 9 5 2 8 ",
"1 3 1 2 8 2 3 3 5 $ : * 2 7 - < > = 2 > 4 0 e 0 8 8 9 * - > & % > < 6 8 6 7 7 : - = : 1 7 , 1 7 0 < 2 5 , , $ > 4 * 7 ; 1 e 5 - ",
"6 & q 4 ; w 1 8 4 7 2 $ 7 > ; : 4 < 5 < < r 5 r 7 6 2 3 1 > @ > : 1 q , < < 3 > ; & 6 ; < 2 , < e < q 5 ; 1 1 2 2 , + , 1 3 8 6 ",
"1 8 8 4 6 < 4 r 3 1 - < < 3 @ , < 5 < 7 w 5 w w 2 5 5 : e = @ & > , 9 8 , 7 ; & % < 1 7 < & 0 2 3 8 8 6 d 2 * 8 $ # o , > 2 w 2 ",
"; 4 ; 8 8 9 6 w 1 8 & 7 5 6 4 1 8 w r 8 q 1 7 e , 4 ; 1 3 = ; 7 3 3 = , 5 - < : = 2 < > @ : 1 = 2 8 : q 9 y 1 ; q 1 X % 1 < , 5 ",
"< 7 6 9 1 w 7 9 5 8 1 5 5 8 7 w t q e 5 3 1 7 1 3 > 1 > : 2 7 5 9 6 2 : * < < > 3 7 < 1 & 4 ; > 4 - , : 3 9 , 4 < > 3 - > , 4 2 ",
"7 4 3 < 3 8 3 ; 7 7 7 9 r 0 5 9 8 2 8 0 , 2 2 < 2 1 , , : , 7 2 4 , q & 3 : , 3 3 7 9 < 2 = < - 1 > : 1 5 8 4 - 3 1 * ; 2 : 2 < ",
"7 , 9 5 > - 4 q 4 8 0 8 8 e e 7 0 7 2 w 2 6 , 3 > > = 6 < 5 1 4 2 3 7 1 5 o * 1 , 3 8 r , < > > , - * < 2 > > 2 < 4 - 3 1 , 2 8 ",
"9 - 2 = $ , > < 8 5 5 7 q 7 w 4 e r w 8 0 2 , < 2 , 1 > q r 3 6 5 : 2 3 > ; 2 1 - 7 2 , 3 1 7 , 3 : 4 ; , : 6 1 2 q 5 , 4 > % 3 ",
": ; @ < ; 6 < 2 8 1 < r 2 w t 7 7 4 6 e 1 $ * , 4 2 2 q 7 < 9 3 > ; 3 : < 1 9 3 3 > - < < 1 % : % & > = 7 2 = , 9 1 3 8 1 - $ ; ",
"5 4 2 = 1 , < 2 , 0 1 q 2 1 8 5 8 2 3 3 4 @ = : 2 , 1 r 2 8 1 , ; 3 - ; 1 4 4 , < 9 = $ > 7 , * , 1 = 3 , 6 1 6 * , : O % & , = ",
"3 1 - 2 1 , * - , 3 1 9 7 4 4 4 - 7 : 2 % ; < , , 4 3 e 5 1 4 5 , & 2 - , : 1 2 5 2 1 2 1 7 3 3 8 1 0 ; 6 1 : < ; $ > < 2 5 = < ",
"7 8 3 1 * > & 4 - 6 < < < 4 : 3 6 = , 1 , , ; 1 : 4 0 4 < 4 < 2 1 2 > * 3 , < 1 , 1 > 8 ; 7 7 > 5 9 7 , 0 5 6 O > < & 8 - < < < ",
"1 < 7 4 4 3 1 > * = 7 , 1 , 2 : > , 4 3 > > < 6 > 0 3 9 : , , 5 > 4 , = 8 2 ; 2 : > 2 3 % 0 9 7 = , 5 7 3 7 7 1 6 > 3 < 2 @ - 3 ",
"6 5 w w , 4 3 = 2 < > , < < > > , 4 1 : , = 5 2 : 3 4 0 * 3 < 9 : 3 1 4 , : > 1 = > 1 < 8 2 8 5 2 9 < 6 6 7 , 3 3 , % 2 3 0 8 - ",
"* t r q , 3 5 > 7 , : e ; < % : < 1 , 5 ; : 3 6 9 1 7 5 = : , 2 , , r : 3 % - ; 3 < 6 0 , , 8 5 : 5 : w 6 , 2 < 4 < 7 1 : 3 < o ",
"9 r 8 7 2 2 3 ; 2 > , ; < : = 1 : 1 , - 4 - < 2 9 2 9 : < 1 , < 3 4 7 , 5 , < < , , 3 8 ; 3 2 < 2 * 1 > 8 1 8 > 7 6 , > > 5 1 O ",
"5 < 2 3 6 y q w 2 6 : < 1 , = ; 3 1 2 = 2 5 0 7 3 6 5 $ > : > * 3 3 7 < 4 2 1 > : 5 w 3 - ; 0 < 2 : < 6 : 4 + > r 9 r 8 : 2 4 % ",
"2 ; 1 w 9 w 9 2 : > 4 2 > 2 < , - , 1 - 7 9 7 @ 9 7 - - : : 1 2 - 7 ; 1 1 5 7 2 1 9 7 3 & - > < & 1 1 * 6 2 > > 2 6 w 7 w & : 5 ",
", 5 8 6 p u 8 2 1 ; @ < < < 2 ; > w 1 5 7 6 7 = 7 & * * 1 , < < 3 , > 2 < 5 3 1 2 < > , , * 1 * - 4 , > - ; 6 4 < > > 8 > 9 2 , ",
"- , : w 9 8 8 9 > 8 : % 4 8 2 , 4 u q 5 7 e 8 1 1 3 1 < , < 8 0 e 8 3 5 7 8 2 6 6 5 , 2 > , 2 - , : : < : 5 7 3 1 - : 1 = ; : r ",
"O , ; 6 3 8 6 8 2 1 1 1 ; 2 w 8 1 > 6 q 7 8 3 : 1 w 7 % 4 , 5 > 4 : < 3 , 8 9 2 < 4 > > , 6 1 , > , > $ , + < O 7 > : > = 1 > & ",
"8 > > < 3 w 7 9 9 3 2 < 8 9 0 > 4 4 < 1 w 9 > , 3 < ; 4 3 3 4 6 1 1 < > 7 3 7 2 , = > - 7 ; , = 1 : 7 8 & ; < + 4 4 & 2 - - 5 < ",
"- 4 4 1 1 , > 1 2 7 6 > y 1 r 9 3 3 4 6 = 0 2 , < & 3 = 7 4 2 > 3 , 3 < 5 6 1 2 2 , < : 1 < 2 3 3 2 , 7 2 < 5 : , 1 > 3 6 < 4 2 ",
"3 4 < - * 2 1 7 2 7 6 5 9 u 9 r 5 2 & , & ; * > 2 < 1 & 2 1 2 - 4 3 1 7 9 7 - 1 < > < = < 5 4 3 = 3 . > : 6 > - < , , * 3 2 3 2 ",
"1 3 < , 1 1 > 2 4 r 2 , 4 0 0 8 2 3 1 * 6 7 , = 1 3 2 4 < 4 : 2 4 1 3 w : 3 4 - , 3 1 1 2 : e 6 & ; 2 0 e 3 2 : 2 4 < : 2 6 2 1 ",
"4 - 1 , , < 1 7 1 8 9 1 3 - : 3 < 1 - > 2 > , : 1 < + 1 3 : 2 < 8 4 4 6 7 3 2 = 2 O = : 1 : 5 2 0 q , 8 8 0 < 5 7 < < 3 1 2 1 2 ",
"2 6 < 6 < : : > 3 0 2 2 : # 4 1 - % 1 % 1 < 2 4 2 2 , 2 , 1 1 1 6 2 7 7 < < , * * , + 1 < 5 : 2 3 0 e w > 4 2 2 2 7 1 ; 2 = 2 - ",
"2 i e < 1 2 : 1 < 1 = 3 3 ; > 3 ; 1 * 2 , : : * 1 9 q < : 1 2 < q 7 ; 4 > ; , : , < 2 3 2 5 < < < 3 < 8 5 1 5 2 0 2 1 = & - * 1 ",
"6 w w r 4 * = : * 1 : 1 3 < ; 1 > , - < : , < 3 7 < 6 , < 5 9 3 4 6 6 3 : ; 2 , : , , 2 3 3 1 2 < 4 1 : 6 q e a u 8 - 1 % 7 0 4 ",
"4 w e 9 5 $ @ : - : : 3 ; 1 ; + 6 # 1 4 2 , 3 1 w 2 2 < 5 < 1 7 7 > < 1 % = 1 1 2 5 0 2 2 8 2 > 1 - r = 2 9 r q 8 8 & 1 # < 1 = ",
"r 6 4 w 6 > : % > > < : , 2 4 - % : < * < 1 4 3 4 3 4 1 8 q 9 8 8 4 ; : : < 8 < 9 3 7 2 , , 4 5 = = 2 4 & 5 1 8 0 7 5 1 2 e 5 4 ",
"p 8 5 3 t 2 3 1 > , < : > 2 , 1 & > , 3 < : 5 , 3 3 5 & 7 1 7 0 , - # & < 6 8 1 9 8 : < : ; % < 4 > > > 1 > 2 8 8 q w e : 4 7 2 ",
"8 9 3 2 < 4 3 5 1 = , : , > 5 > > > , * , 1 < 3 3 1 < r 3 y , 4 < : = ; > 5 3 0 1 : : # , & , 6 : - : ; > > 2 2 6 r < < 4 0 2 1 ",
"r < < 8 3 0 5 7 3 1 3 * , 4 ; : , - - 1 1 % = : , 2 < 8 1 8 , 4 > 2 ; : 8 w 6 8 < - > : : & > ; * & ; : : , 2 1 3 3 * < < 6 2 , ",
"< 0 1 7 3 8 6 4 7 3 1 1 , - < 1 1 = * 1 > 1 3 > , : q 2 4 7 1 3 1 7 - 9 7 < > < , 2 > - , = < = # : $ : 7 ; = 2 8 2 3 1 7 5 3 = ",
"1 1 2 & 8 < 5 1 7 2 5 > > 2 9 > 6 3 3 5 < 5 3 1 8 = 1 6 8 , 2 7 , > , < > > 1 8 4 < : 3 > > , = * = < - * & : > 4 1 5 < < < - , ",
": < , 2 > 8 4 4 8 6 4 5 , 0 6 2 0 < > 7 4 1 & < > , < < 4 3 6 , 1 ; 1 2 ; < 2 8 6 ; > < < , - & , 1 > 1 > > & > > 2 < 9 7 > = - ",
"% : 5 2 < 1 < 8 < 8 r 8 0 6 0 3 3 8 2 , ; % 5 : > 1 1 7 : 7 , 1 5 > 6 , 6 8 2 ; > > > < : , : * 1 $ : = , < = , : , 1 2 w 6 8 - ",
"O < , 1 4 1 > 5 < 3 e 9 q 8 9 : 6 2 : > 1 2 > > 4 4 7 1 7 : : < > 4 > e 5 5 3 3 1 : < > - 4 ; , > 4 = < : - > $ 1 > 5 $ 9 5 5 8 ",
"- < ; , , = > 2 3 1 1 i 7 5 5 3 1 ; 3 , 3 2 3 8 2 5 4 , : % , ; = 5 3 2 1 6 > < < < : : 4 - 2 - 1 , , 3 , < > 1 ; 4 ; 2 2 6 3 w ",
"3 7 > 2 > = , = : < 0 1 6 2 : = : = 1 < 3 = > 2 6 8 : O - 5 7 1 6 7 1 8 < , * 4 2 3 : 5 2 4 3 -   4 1 > i = 2 * 5 = - , - < 0 2 ",
"8 5 < < 0 2 1 2 ; % < % 2 4 5 o & 3 : 5 > < - , 1 8 $ * 2 = 4 3 4 u 6 < < + & 4 2 > : 3 6 3 2 1 < < 1 > 6 4 3 8 5 < 2 : < 8 3 < ",
"3 * < : 1 7 < : 2 3 + , , - , 3 < ; 3 6 : 5 4 < 3 7 , : * - 9 , u w 8 < < - : * : < < 1 5 w 8 7 0 0 > 2 q < 3 1 < 6 , - 3 1 > 9 ",
"1 6 2 3 : 5 9 w 1 5 3 3 1 % 3 : 1 2 6 , 9 3 4 , 7 < 2 < = = 2 5 > , 8 1 ; 5 : = , > 1 - 4 q 7 0 0 2 9 q 7 ; 7 w 9 0 9 4 1 3 , 6 ",
"r 1 2 3 2 8 5 : 7 9 2 2 2 < - 8 5 < u 4 < , 1 8 $ + ; 7 , , < = 4 y % : > = , - , < 6 4 3 < 8 8 6 2 8 r w - 6 7 8 3 1 > < > 3 8 ",
"1 7 4 6 0 1 r 1 , : 3 7 w 4 y 1 6 8 w i 2 1 < 3 > & < 8 8 ; - - > 3 < : = ; ; 5 * r 2 4 7 2 > 4 3 9 f 7 5 5 3 3 r q 9 3 7 3 2 6 ",
"p 5 5 3 - 4 u 3 r 8 q q r t t p w e w q ; 4 > 2 3 1 3 > r $ t , < & 3 $ * , , > ; 4 9 8 1 < 2 5 0 7 5 2 5 1 : 7 6 e 9 6 3 < 2 * ",
"0 9 q 8 7 3 r e 8 r r u 7 u t p 0 u 5 7 5 ; 6 < % e 5 : 3 5 @ 9 * , < 1 3 - , 7 w : 5 2 2 5 5 4 , 3 $ - , * 2 4 9 6 3 9 4 w 5 4 ",
"g e u r 0 4 4 w w 9 9 e w q e p 8 7 8 < : - 1 = 1 7 4 q > 6 > 3 - > 3 4 4 1 e r < 7 6 7 % = > * - ; > @ < $ , , 4 5 9 8 5 4 2 - ",
"7 9 f r t e 0 < > 4 q 8 8 r r 6 0 5 ; 8 4 - 2 5 3 6 3 , 8 6 = : > * 1 1 t - u q 9 8 1 1 % - o - 2 < 5 9 < = : , 7 0 8 y e 1 3 4 ",
"7 2 q < 8 7 3 < 2 > 9 w < 6 3 < 5 4 : ; 2 > 1 2 : r 9 < 2 6 , 5 : = 5 5 e 3 4 3 6 1 * : # & 7 0 * , 2 - - * 2 < 4 , 5 9 0 9 8 < ",
"4 5 e w 9 8 9 < 8 6 5 6 5 - 4 1 * 2 > < 1 3 > 7 1 e > 5 3 < 8 - , q 4 6 4 0 8 3 - 3 < 1 % 1 * e 1 ; 7 2 < , ; < 3 2 3 9 8 7 y , ",
"= 5 9 ; e q < 4 5 9 1 - < : 2 4 : 2 3 , 9 > > < * - 4 5 < 6 4 6 , 7 3 9 6 , 2 1 , ; q & 0 - r 7 t 8 7 = 1 8 7 , 2 , , 1 6 q > 6 ",
"- 3 8 8 8 ; w 7 * r 7 8 5 < 4 9 2 , 5 w : 0 9 6 4 , 2 , > , 7 3 6 q w 2 5 9 * : , 3 5 8 > 3 i u < e 6 0 w 1 5 4 , , 2 2 4 , 0 5 ",
"< 1 > 6 2 e 9 9 u a y 2 8 7 r 6 e < 0 2 3 6 < 3 < > < 1 3 9 8 q , 8 r > 3 2 2 $ 0 7 < 0 0 : - f i 5 r 5 t = 2 6 3 1 1 2 > < < 4 ",
"7 > = 3 8 < 8 4 t s 3 e w r , r 8 8 1 9 2 , 3 7 > : , 1 , q 5 3 , 6 9 r = : 6 , = 8 4 7 8 3 * r 0 3 6 6 8 4 8 2 3 : < < 1 3 3 & "
};
